<svg width="47" height="41" viewBox="0 0 47 41" fill="none" xmlns="http://www.w3.org/2000/svg">
<path fill-rule="evenodd" clip-rule="evenodd" d="M23.416 1.33302C22.5857 1.33408 21.7897 1.66434 21.2026 2.25147C20.6154 2.83861 20.2851 3.63464 20.2841 4.46498V5.22499C20.2854 6.05471 20.6156 6.85007 21.2023 7.43678C21.789 8.02348 22.5843 8.35367 23.4141 8.35499H23.416C24.252 8.35499 25.0371 8.02997 25.6291 7.43897C25.9209 7.14882 26.1524 6.80368 26.3099 6.42347C26.4675 6.04326 26.5481 5.63557 26.5471 5.22401V4.46595C26.5482 4.05461 26.4678 3.64714 26.3104 3.2671C26.153 2.88706 25.9217 2.54202 25.6301 2.25196C25.3401 1.96002 24.9951 1.72856 24.6151 1.57081C24.2351 1.41307 23.8275 1.33223 23.416 1.33302V1.33302ZM23.416 9.52296H23.4141C22.2747 9.52137 21.1824 9.06793 20.377 8.26197C19.5716 7.45601 19.1189 6.36341 19.1181 5.22401V4.464C19.1197 3.32468 19.573 2.23254 20.3787 1.42701C21.1844 0.621483 22.2767 0.168325 23.416 0.167002C23.9807 0.165802 24.5401 0.276537 25.0617 0.492808C25.5833 0.709078 26.0569 1.0266 26.455 1.42701C26.8554 1.82516 27.1728 2.2988 27.3889 2.82044C27.6051 3.34209 27.7155 3.90132 27.7141 4.46595V5.22401C27.7155 5.78888 27.605 6.34842 27.3887 6.87025C27.1724 7.39208 26.8547 7.86586 26.4541 8.26405C26.0561 8.66433 25.5827 8.98157 25.0612 9.19752C24.5397 9.41347 23.9805 9.52375 23.416 9.52198V9.52296ZM19.925 40.759H18.7581L18.761 16.843H19.9271L19.925 40.759ZM28.067 40.759H26.9001L26.9031 16.843H28.0691L28.067 40.759V40.759ZM23.9971 40.759H22.8291V25.689H23.9971V40.759Z" fill="url(#paint0_linear_214_57)"/>
<path fill-rule="evenodd" clip-rule="evenodd" d="M29.534 26.273H27.486V25.1071H29.534C29.7379 25.1065 29.9332 25.0251 30.0772 24.8808C30.2212 24.7364 30.302 24.5409 30.302 24.3371V14.98C30.3031 14.3835 30.1159 13.802 29.767 13.3183C29.4181 12.8345 28.9253 12.4733 28.359 12.286C25.1483 11.2286 21.683 11.2282 18.472 12.2851C17.9055 12.4721 17.4126 12.8333 17.0635 13.317C16.7144 13.8008 16.527 14.3824 16.528 14.979L16.526 24.3371C16.5266 24.5409 16.6079 24.7362 16.7523 24.8801C16.8966 25.0241 17.0921 25.105 17.296 25.105H19.343V26.272H17.294C16.7809 26.2709 16.2892 26.0665 15.9266 25.7034C15.5641 25.3403 15.3603 24.8481 15.36 24.335V14.979C15.3592 14.1372 15.6242 13.3165 16.1171 12.634C16.6099 11.9516 17.3056 11.442 18.105 11.178C21.5544 10.0429 25.2767 10.0429 28.726 11.178C29.5255 11.442 30.2211 11.9518 30.7137 12.6345C31.2063 13.3173 31.4706 14.1381 31.469 14.98V24.338C31.4685 24.8511 31.2645 25.3429 30.9017 25.7057C30.5389 26.0685 30.0471 26.2724 29.534 26.273V26.273ZM38.107 3.92604C37.277 3.92684 36.4813 4.25686 35.8943 4.84364C35.3073 5.43043 34.9771 6.22607 34.976 7.05605V7.81606C34.976 8.65106 35.302 9.43805 35.893 10.03C36.485 10.62 37.271 10.947 38.107 10.947C38.9374 10.9462 39.7336 10.616 40.3208 10.0288C40.908 9.44163 41.2382 8.64537 41.239 7.81496V7.05702C41.238 6.22678 40.9076 5.43086 40.3205 4.84389C39.7333 4.25691 38.9373 3.92684 38.107 3.92604V3.92604ZM38.107 12.1131C37.5425 12.1147 36.9832 12.0043 36.4615 11.7883C35.9399 11.5724 35.4663 11.2552 35.068 10.855C34.6675 10.4567 34.3501 9.98302 34.1339 9.4612C33.9178 8.93937 33.8074 8.37976 33.809 7.81496V7.05507C33.8106 5.91584 34.264 4.8237 35.0698 4.01833C35.8755 3.21296 36.9678 2.76011 38.107 2.75905C39.2465 2.76037 40.339 3.21356 41.1447 4.0193C41.9505 4.82505 42.4037 5.91753 42.405 7.05702V7.81496C42.4037 8.95445 41.9505 10.0469 41.1447 10.8527C40.339 11.6584 39.2465 12.1117 38.107 12.1131ZM8.72302 3.92201C8.31168 3.92085 7.90421 4.0013 7.52417 4.15871C7.14413 4.31611 6.79909 4.54733 6.50903 4.83901C6.21724 5.12918 5.98593 5.47441 5.82852 5.85463C5.67111 6.23485 5.59074 6.64246 5.59204 7.05397V7.81203C5.5931 8.64192 5.92316 9.43751 6.50989 10.0244C7.09662 10.6113 7.89212 10.9417 8.72202 10.943C9.55218 10.9422 10.3482 10.6123 10.9355 10.0255C11.5227 9.4388 11.8535 8.64316 11.855 7.813V7.05299C11.8537 6.2231 11.5234 5.42757 10.9365 4.84084C10.3495 4.25411 9.55392 3.92405 8.72403 3.92299H8.72302V3.92201ZM8.72302 12.11C7.58362 12.1087 6.49129 11.6554 5.6857 10.8496C4.88011 10.0439 4.42708 8.95143 4.42603 7.81203V7.05397C4.42603 5.90397 4.87303 4.82505 5.68503 4.01405C6.08311 3.61395 6.5566 3.29676 7.07806 3.08083C7.59953 2.86489 8.15862 2.75445 8.72302 2.756C9.86269 2.75706 10.9554 3.21023 11.7614 4.01601C12.5673 4.82178 13.0207 5.9143 13.022 7.05397V7.813C13.0202 8.95259 12.5665 10.045 11.7604 10.8505C10.9543 11.656 9.8616 12.1089 8.72202 12.11H8.72302ZM42.759 40.76H41.592L41.593 19.4351H42.76L42.759 40.76Z" fill="url(#paint1_linear_214_57)"/>
<path fill-rule="evenodd" clip-rule="evenodd" d="M44.2239 28.864H42.1769V27.698H44.2239C44.4276 27.6978 44.6229 27.6167 44.7671 27.4728C44.9112 27.3289 44.9924 27.1338 44.993 26.9301L44.9939 17.5711C44.9946 16.9747 44.8071 16.3934 44.4583 15.9097C44.1094 15.426 43.617 15.0646 43.0509 14.877C39.8398 13.8195 36.3743 13.8192 33.1629 14.876L32.7959 13.7691C36.2452 12.6351 39.9669 12.6354 43.4159 13.77C44.2153 14.034 44.911 14.5436 45.4039 15.2261C45.8968 15.9086 46.1617 16.7292 46.1609 17.5711L46.1599 26.9301C46.1591 27.4431 45.9548 27.9348 45.5919 28.2974C45.2289 28.66 44.737 28.8638 44.2239 28.864V28.864ZM34.6169 40.76H33.45L33.4509 19.434H34.618L34.6169 40.76ZM38.687 40.76H37.5209V28.2801H38.6879V40.76H38.687ZM5.23193 40.756H4.06494L4.06793 19.4311H5.23395L5.23193 40.756ZM9.30392 40.756H8.13693L8.13794 28.278H9.30493L9.30392 40.756ZM13.3739 40.757H12.209V19.432H13.3759L13.3739 40.757" fill="url(#paint2_linear_214_57)"/>
<path fill-rule="evenodd" clip-rule="evenodd" d="M4.65 28.86H2.60199C2.08896 28.8595 1.59712 28.6555 1.23435 28.2928C0.87158 27.93 0.667525 27.4381 0.666996 26.9251V17.568C0.665912 16.7261 0.930725 15.9054 1.42365 15.2228C1.91657 14.5403 2.61243 14.0307 3.41199 13.767C6.86097 12.6296 10.584 12.6296 14.033 13.767L13.666 14.875C10.4555 13.8158 6.98971 13.8155 3.779 14.8741C3.21267 15.0614 2.7199 15.4226 2.37085 15.9063C2.02181 16.39 1.83428 16.9715 1.83499 17.568L1.83301 26.9251C1.83301 27.3491 2.178 27.693 2.603 27.693H4.65V28.86" fill="url(#paint3_linear_214_57)"/>
<defs>
<linearGradient id="paint0_linear_214_57" x1="34.6472" y1="20.463" x2="8.79452" y2="23.7801" gradientUnits="userSpaceOnUse">
<stop stop-color="#068BE4"/>
<stop offset="1" stop-color="#0061A7"/>
</linearGradient>
<linearGradient id="paint1_linear_214_57" x1="69.8426" y1="21.758" x2="-12.2214" y2="68.0609" gradientUnits="userSpaceOnUse">
<stop stop-color="#068BE4"/>
<stop offset="1" stop-color="#0061A7"/>
</linearGradient>
<linearGradient id="paint2_linear_214_57" x1="75.9014" y1="26.8394" x2="6.63962" y2="85.4191" gradientUnits="userSpaceOnUse">
<stop stop-color="#068BE4"/>
<stop offset="1" stop-color="#0061A7"/>
</linearGradient>
<linearGradient id="paint3_linear_214_57" x1="23.4759" y1="20.887" x2="-7.44844" y2="35.3864" gradientUnits="userSpaceOnUse">
<stop stop-color="#068BE4"/>
<stop offset="1" stop-color="#0061A7"/>
</linearGradient>
</defs>
</svg>
