<svg width="48" height="40" viewBox="0 0 48 40" fill="none" xmlns="http://www.w3.org/2000/svg">
<path d="M29.44 0.239997C21.336 0.235997 12.88 2.062 4.34601 4.43C3.26301 4.647 2.20501 5.357 1.64601 6.234C1.13101 7.059 0.946012 7.89 0.784012 8.76C-0.0459878 13.405 0.0560122 17.967 0.229012 23.022C0.266012 24.178 0.439012 25.55 0.979012 26.383C1.54301 27.226 2.51001 27.76 3.66501 27.936C5.14901 28.161 6.62701 28.33 8.10501 28.486L7.77801 37.612C7.75684 37.9307 7.81351 38.2499 7.94312 38.5418C8.07273 38.8338 8.2714 39.0899 8.52201 39.288C8.91701 39.588 9.35701 39.722 9.80801 39.755C10.71 39.823 11.768 39.437 12.295 38.437C14.596 34.005 16.042 32.049 18.921 29.105C26.431 29.289 32.986 28.872 40.409 28.323C43.033 28.255 44.833 26.109 45.309 24.397C46.734 19.957 46.955 14.477 47.106 8.937C47.17 6.74 46.408 4.585 45.059 3.446C43.778 2.406 42.225 2.028 40.803 1.643C36.851 0.747997 32.898 0.266997 29.44 0.239997ZM40.236 3.713C41.66 4.099 42.916 4.473 43.707 5.115C45.03 6.52 44.986 7.455 44.967 8.971C44.818 14.344 44.56 19.559 43.347 23.511C42.824 24.985 41.914 26.034 40.193 26.193C32.632 26.753 26.071 27.183 18.47 26.968C18.3221 26.9634 18.1748 26.9891 18.0372 27.0436C17.8996 27.0982 17.7746 27.1803 17.67 27.285C14.476 30.509 12.842 32.751 10.409 37.435C10.352 37.543 10.229 37.607 10.079 37.619C9.97701 37.613 9.93601 37.535 9.92901 37.464L10.259 27.569C10.279 27.035 9.83801 26.525 9.30701 26.467C7.53701 26.295 5.77201 26.084 3.99901 25.817C3.23701 25.7 2.95601 25.492 2.74701 25.182C2.38401 24.316 2.39301 23.781 2.36401 22.948C2.19401 17.939 2.11101 13.561 2.88001 9.206C2.95101 8.561 3.19201 7.902 3.44801 7.352C3.87201 6.689 4.52201 6.592 5.17301 6.411C13.519 4.107 21.685 2.382 29.373 2.377C33.141 2.514 37.099 2.892 40.236 3.713V3.713ZM11.407 12.2C10.257 13.579 10.372 15.448 11.26 16.702C11.724 17.357 12.448 17.885 13.33 18.004C14.474 18.098 15.2 17.635 15.983 17.103C17.403 15.868 17.547 13.716 16.467 12.161C15.917 11.369 15.039 10.893 14.141 10.861C12.911 10.873 12.076 11.421 11.407 12.2V12.2ZM23.845 11.076C22.7 11.113 21.774 11.906 21.208 12.762C20.561 13.741 20.183 14.966 20.707 16.168C21.714 18.478 25.193 18.45 26.582 16.101C27.222 15.019 27.058 13.789 26.582 12.896C26.107 12.003 25.39 11.276 24.346 11.11C24.1805 11.0826 24.0127 11.0712 23.845 11.076V11.076ZM33.943 11.293C33.5833 11.2817 33.2238 11.3211 32.875 11.41C31.498 11.777 30.327 13.198 30.505 15.016C30.595 15.93 31.015 16.822 31.773 17.436C32.532 18.051 33.633 18.326 34.794 18.088C36.129 17.814 36.955 16.739 37.231 15.7C37.507 14.662 37.438 13.604 36.797 12.746C36.088 11.796 35.015 11.318 33.943 11.293V11.293ZM14.047 12.996C14.304 12.998 14.507 13.08 14.715 13.38C15.182 14.054 15.052 15.074 14.581 15.483C14.111 15.892 13.819 15.929 13.613 15.901C13.408 15.873 13.2 15.731 13.013 15.467C12.656 14.964 12.551 14.149 13.02 13.567C13.27 13.236 13.728 13.029 14.047 12.996V12.996ZM23.995 13.23C24.035 13.236 24.482 13.496 24.696 13.897C24.91 14.299 24.95 14.672 24.746 15.016C24.141 16.039 22.854 15.763 22.66 15.316C22.586 15.147 22.641 14.464 22.994 13.931C23.346 13.398 23.789 13.197 23.995 13.23V13.23ZM35.078 14.014C35.143 14.101 35.302 14.685 35.178 15.15C35.055 15.614 34.854 15.9 34.36 16C33.728 16.13 33.375 16 33.109 15.784C32.842 15.568 32.663 15.204 32.625 14.816C32.53 13.851 32.877 13.626 33.425 13.48C34.067 13.323 34.789 13.597 35.078 14.014Z" fill="#18A0FB"/>
</svg>
