<svg width="1024" height="838" viewBox="0 0 1024 838" fill="none" xmlns="http://www.w3.org/2000/svg">
<g clip-path="url(#clip0_214_193)">
<path opacity="0.1" d="M176 837.84C273.202 837.84 352 824.413 352 807.85C352 791.287 273.202 777.86 176 777.86C78.7979 777.86 0 791.287 0 807.85C0 824.413 78.7979 837.84 176 837.84Z" fill="#18A0FB"/>
<path opacity="0.1" d="M847.47 830.74C944.672 830.74 1023.47 817.313 1023.47 800.75C1023.47 784.187 944.672 770.76 847.47 770.76C750.268 770.76 671.47 784.187 671.47 800.75C671.47 817.313 750.268 830.74 847.47 830.74Z" fill="#18A0FB"/>
<path opacity="0.1" d="M274.41 0.460007C228.41 2.92001 181.93 16.36 146.04 45.25C114.55 70.61 91.8399 110.48 97.3799 150.54C103.92 197.83 146.11 232.23 161.76 277.34C171.83 306.34 170.26 338.34 163.67 368.34C159.43 387.67 152.91 407.02 140.38 422.34C117.81 449.9 77.0799 463.2 65.9899 497.05C53.9299 533.86 84.3199 569.96 112.87 596.14C135.66 617.03 159.53 637.82 188.25 649.27C209.25 657.65 232.04 660.66 254.63 661.86C317.01 665.133 379.376 655.168 437.63 632.62C465.54 621.79 492.54 608.06 521.75 601.53C584 587.61 648.05 607.68 711.14 617.08C765.222 625.114 820.182 625.276 874.31 617.56C908.37 612.7 943.56 603.93 969.21 581.01C995.21 557.74 1008.21 521.72 1006.77 486.82C1005.33 451.92 990.61 418.32 968.93 390.92C940.93 355.53 902.31 330.35 868.71 300.19C834.497 269.463 805.393 233.486 782.49 193.61C769.29 170.61 758.06 146.2 740.96 125.95C714.29 94.39 675.61 75.62 636.96 61.12C547.8 27.72 455.32 20.92 362.36 6.16001C333.31 1.53001 303.84 -1.07999 274.41 0.460007V0.460007Z" fill="#18A0FB"/>
<g opacity="0.7">
<path opacity="0.7" d="M258.54 367.11H449.5V473.82H258.54V367.11Z" fill="#F6F7F9"/>
<path opacity="0.2" d="M294.49 434.36C305.47 434.36 314.37 425.459 314.37 414.48C314.37 403.501 305.47 394.6 294.49 394.6C283.511 394.6 274.61 403.501 274.61 414.48C274.61 425.459 283.511 434.36 294.49 434.36Z" fill="#18A0FB"/>
<path opacity="0.2" d="M338.61 390.92H425.23V396.37H338.61V390.92ZM338.61 404.81H382.74V410.26H338.61V404.81ZM338.61 418.7H409.98V424.15H338.61V418.7ZM338.61 432.59H425.23V438.04H338.61V432.59ZM401.27 452.64H425.24V463.17H401.27V452.64Z" fill="#18A0FB"/>
<path opacity="0.7" d="M419.31 72.2H610.27V178.91H419.31V72.2Z" fill="#F6F7F9"/>
<path opacity="0.2" d="M455.27 139.45C466.25 139.45 475.15 130.549 475.15 119.57C475.15 108.591 466.25 99.6899 455.27 99.6899C444.291 99.6899 435.39 108.591 435.39 119.57C435.39 130.549 444.291 139.45 455.27 139.45Z" fill="#18A0FB"/>
<path opacity="0.2" d="M499.39 96.01H586.01V101.46H499.39V96.01ZM499.39 109.9H543.52V115.35H499.39V109.9ZM499.39 123.79H570.76V129.24H499.39V123.79ZM499.39 137.69H586.01V143.14H499.39V137.69ZM562.04 157.73H586.01V168.26H562.04V157.73Z" fill="#18A0FB"/>
<path opacity="0.7" d="M482.87 251.36H673.83V358.07H482.87V251.36Z" fill="#F6F7F9"/>
<path opacity="0.2" d="M518.82 318.62C529.799 318.62 538.7 309.719 538.7 298.74C538.7 287.761 529.799 278.86 518.82 278.86C507.841 278.86 498.94 287.761 498.94 298.74C498.94 309.719 507.841 318.62 518.82 318.62Z" fill="#18A0FB"/>
<path opacity="0.2" d="M562.95 275.18H649.57V280.63H562.95V275.18ZM562.95 289.07H607.08V294.52H562.95V289.07ZM562.95 302.96H634.32V308.41H562.95V302.96ZM562.95 316.85H649.57V322.3H562.95V316.85ZM625.6 336.9H649.57V347.43H625.6V336.9Z" fill="#18A0FB"/>
</g>
<path d="M191.88 135.71H512.99V317.15H191.88V135.71Z" fill="url(#paint0_linear_214_193)"/>
<path d="M194.15 137.96H510.75V314.89H194.15V137.96Z" fill="#F6F7F9"/>
<path opacity="0.2" d="M253.75 249.47C271.953 249.47 286.71 234.713 286.71 216.51C286.71 198.307 271.953 183.55 253.75 183.55C235.547 183.55 220.79 198.307 220.79 216.51C220.79 234.713 235.547 249.47 253.75 249.47Z" fill="#18A0FB"/>
<path opacity="0.2" d="M326.92 177.44H470.54V186.47H326.92V177.44ZM326.92 200.48H400.08V209.51H326.92V200.48ZM326.92 223.51H445.25V232.54H326.92V223.51ZM326.92 246.54H470.54V255.57H326.92V246.54Z" fill="#18A0FB"/>
<path d="M430.79 279.78H470.53V297.24H430.79V279.78Z" fill="#18A0FB"/>
<path d="M417.12 380.82H722.54V551.49H417.12V380.82Z" fill="url(#paint1_linear_214_193)"/>
<path d="M419.23 381.99H720.43V550.31H419.23V381.99Z" fill="#F6F7F9"/>
<path opacity="0.2" d="M475.94 488.08C493.26 488.08 507.3 474.04 507.3 456.72C507.3 439.4 493.26 425.36 475.94 425.36C458.62 425.36 444.58 439.4 444.58 456.72C444.58 474.04 458.62 488.08 475.94 488.08Z" fill="#18A0FB"/>
<path opacity="0.2" d="M545.54 419.55H682.17V428.14H545.54V419.55ZM545.54 441.47H615.14V450.06H545.54V441.47ZM545.54 463.38H658.11V471.97H545.54V463.38ZM545.54 485.29H682.17V493.88H545.54V485.29Z" fill="#18A0FB"/>
<path opacity="0.5" d="M644.36 516.91H682.17V533.52H644.36V516.91Z" fill="#18A0FB"/>
<path opacity="0.1" d="M82.8601 287.92L83.6001 288.08C83.3839 287.932 83.1182 287.874 82.8601 287.92V287.92Z" fill="url(#paint2_linear_214_193)"/>
<path d="M237.58 404.09C235.37 389.25 221.89 354.63 221.89 354.63C221.65 353.63 221.39 352.57 221.09 351.55C211.52 318.66 198.28 315.75 198.28 315.75L150.85 305.64C151.241 305.885 151.581 306.204 151.85 306.58L151.1 306.7C148.923 304.132 147.485 301.022 146.94 297.7C146.85 297.21 146.77 296.7 146.71 296.18C150.119 292.86 152.778 288.85 154.508 284.417C156.239 279.985 157.001 275.233 156.743 270.482C156.486 265.731 155.214 261.09 153.015 256.871C150.815 252.651 147.738 248.952 143.99 246.02C143.5 245.63 142.99 245.26 142.47 244.89C144.71 242.52 144.78 239.21 143.11 235.89C139.37 228.12 131.25 223.21 122.89 220.82C116.51 218.99 109.59 218.4 103.27 220.4C99.66 221.54 96.38 223.47 93 225.16C86.7 228.31 79.76 230.8 75 235.97C73.89 237.18 72.88 238.72 73.2 240.31C73.45 241.5 74.38 242.41 74.99 243.47C76.34 245.83 75.99 248.8 75.08 251.37C74.17 253.94 72.79 256.37 72.14 258.97C71.49 261.57 71.75 264.71 73.73 266.59C74.692 267.343 75.6934 268.044 76.73 268.69C77.8165 269.61 78.769 270.677 79.56 271.86L85.18 279.45C87.8034 282.815 90.1446 286.39 92.18 290.14C93.57 292.89 94.66 295.84 96.53 298.3C97.0802 299.032 97.7071 299.702 98.4 300.3C98.22 300.23 98.03 300.17 97.85 300.09C98.6781 300.897 99.662 301.527 100.742 301.942C101.822 302.356 102.974 302.546 104.13 302.5H104.41C104.839 302.493 105.249 302.325 105.56 302.03V303.03C105.66 306.68 105.65 310.56 105.39 314.2L104.95 313.98C104.299 313.653 103.567 313.52 102.842 313.596C102.117 313.672 101.429 313.955 100.86 314.41L57.17 349.41C57.17 349.41 47.68 362.41 49 384.81L41.35 418.43C41.35 418.43 31.78 446.96 39.14 467.33C46.5 487.7 50.77 499.33 50.77 499.33C50.77 499.33 53.71 522.47 58.13 524.33C62.55 526.19 64.46 527.25 64.46 527.25L65.34 532.78C65.34 532.78 65.63 533.31 66.15 534.23C69.37 539.82 81.28 559.56 88.21 557.46C89.0756 562.818 89.4538 568.244 89.34 573.67L96.18 619.67C96.18 619.67 100.96 632.18 100.67 638.73C100.38 645.28 106.26 654.6 106.26 654.6C102.69 661.128 101.644 668.741 103.32 675.99C106.12 688.22 109.65 744.68 109.65 744.68L114.8 758.36L114.65 774.36C114.224 776.959 113.135 779.404 111.49 781.46C108.17 785.06 108.39 789.22 100.49 794.13C92.59 799.04 87.49 800.89 87.49 807.44C87.4809 808.345 87.4006 809.248 87.25 810.14C86.51 814.93 85.08 817.51 99.75 818.91C116.97 820.54 128.45 809.3 128.45 809.3C128.45 809.3 130.98 804.71 142.91 802.86C142.91 802.86 146.98 802.64 147.21 799.03C147.29 797.79 147.27 795.41 147.16 792.79C146.97 787.79 146.49 781.97 145.86 781.68C145.07 781.33 143.67 776.3 143.19 774.48H146.51C146.51 774.48 149.6 751.34 146.51 736.34C143.42 721.34 146.22 710.73 146.22 710.73L145.63 671.15C145.63 671.15 141.46 666.92 144.73 659.22C148 651.52 144.73 613.38 144.73 613.38C144.73 613.38 145.92 599.7 149.3 596.5C152.68 593.3 149.47 576.45 149.3 575.57L155.3 595.77C155.3 595.77 157.95 635.94 163.55 643.22L165.17 661.4C165.17 661.4 176.65 678.14 174.44 687.17C172.23 696.2 176.8 728.79 176.8 728.79V762.12C176.8 762.12 171.64 775.51 178.86 780.31L181.97 780.19C180.91 781.19 180.15 782.58 178.97 783.81C177.59 785.23 176.81 790.63 176.37 795.27C176 799.2 175.88 802.58 175.88 802.58C175.88 802.58 178.97 807.49 184.71 807.82C190.45 808.15 209.44 822.67 209.44 822.67C209.44 822.67 228.22 822.67 233.07 821.67L233.36 821.6C234.918 821.103 236.227 820.03 237.02 818.6C237.998 816.944 238.316 814.98 237.91 813.1C237.3 810.23 235.03 807.1 229.98 804.41C217.39 797.76 215.52 791.54 215.52 791.54L207.27 779.18H208.45C208.45 779.18 207.72 766.08 216.69 751.38L216.11 686.62C216.11 686.62 219.78 664.35 213.46 652.27C213.46 652.27 212.94 639.46 217.17 635.53C221.4 631.6 211.54 591.87 211.54 591.87C211.54 591.87 209.54 570.55 207.1 551.09C217.03 560.51 227.34 526.58 229.1 520.55H229.36C229.36 520.55 229.31 520.39 229.24 520.11C229.17 519.83 229.36 519.68 229.36 519.68C229.36 519.63 227.16 511.83 228.77 513.42C230.38 515.01 234.37 509.06 234.37 509.06C234.37 509.06 233.78 476.6 240.7 460.24C247.62 443.88 237.58 404.09 237.58 404.09V404.09ZM207.99 424.74L208.04 424.65C209.04 444.47 207.84 486.76 207.84 486.76C207.84 486.76 206.48 492.18 205.02 498.56L203.97 458.38L202.97 420.54L207.99 424.74ZM81.26 411.08C81.26 411.08 86.26 473.66 81.26 482.68C79.83 485.25 78.64 489.82 77.65 495.05C76 490.71 72.5 480.52 73.75 475.12C75.37 468.12 70.51 449.79 70.51 449.36C70.51 448.93 70.07 439.17 73.6 431.67C77.13 424.17 74.78 420.97 74.78 420.97C74.78 420.97 77.73 408.75 81.26 411.08V411.08Z" fill="url(#paint3_linear_214_193)"/>
<path d="M93.44 552.02C89.09 571.18 71.75 542.2 67.8 535.25L67 533.81L68.88 525L78.82 520.95C80.3901 521.771 81.8771 522.742 83.26 523.85C88.73 528.09 96.8 537.18 93.44 552.02ZM227.94 520.66L227.83 521.09C227.83 521.22 227.74 521.37 227.69 521.56C225.99 527.56 215.88 561.22 206.12 551.87C195.44 541.61 200.63 518.05 200.63 518.05H200.73L223.2 515.75L227.65 520.33L227.94 520.66Z" fill="#EFB7B9"/>
<path d="M214.94 686.37L215.51 750.65C206.71 765.25 207.42 778.25 207.42 778.25L178.42 779.4C171.34 774.64 176.42 761.35 176.42 761.35V728.26C176.42 728.26 171.89 695.92 174.05 686.92C176.21 677.92 164.95 661.35 164.95 661.35L163.37 643.3C157.87 636.08 155.27 596.2 155.27 596.2L149.36 576.2C149.51 577.07 152.58 593.88 149.36 596.97C146.14 600.06 144.88 613.73 144.88 613.73C144.88 613.73 148.06 651.58 144.88 659.23C141.7 666.88 145.74 671.23 145.74 671.23L146.33 710.52C146.33 710.52 143.58 721.07 146.61 735.95C149.64 750.83 146.61 773.8 146.61 773.8H115.41L115.55 757.8L110.5 744.22C110.5 744.22 107.03 688.17 104.29 676.04C102.643 668.845 103.667 661.297 107.17 654.8C107.17 654.8 101.4 645.55 101.69 639.05C101.98 632.55 97.2801 620.13 97.2801 620.13L90.5601 574.48C90.7493 565.697 89.6304 556.934 87.2401 548.48C83.3301 535.48 77.5601 518.43 77.5601 518.43L84.0801 519.01L117 521.94C117 521.94 197 516.56 200.61 521.03C201.37 522.489 201.884 524.063 202.13 525.69C205.72 541.84 210.47 592.4 210.47 592.4C210.47 592.4 220.15 631.84 215.99 635.74C211.83 639.64 212.35 652.35 212.35 652.35C218.55 664.27 214.94 686.37 214.94 686.37V686.37Z" fill="#444053"/>
<path d="M147.29 798.14C147.06 801.72 143.06 801.94 143.06 801.94C131.36 803.78 128.88 808.34 128.88 808.34C128.88 808.34 117.61 819.49 100.73 817.92C86.34 816.54 87.73 813.92 88.47 809.22C88.6174 808.334 88.6943 807.438 88.7 806.54C88.7 800.04 93.7 798.19 101.49 793.32C109.28 788.45 109.07 784.32 112.32 780.75C115.57 777.18 115.9 770.25 115.9 770.25C119.58 763.85 128.9 771.25 128.9 771.25C129.33 773.52 143.2 773.25 143.2 773.25C143.2 773.25 145.04 780.62 145.98 781.05C146.6 781.34 147.07 787.12 147.26 792.05C147.35 794.55 147.36 796.92 147.29 798.14V798.14Z" fill="#B07473"/>
<path opacity="0.1" d="M147.29 798.14C147.06 801.72 143.06 801.94 143.06 801.94C131.36 803.78 128.88 808.34 128.88 808.34C128.88 808.34 117.61 819.49 100.73 817.92C86.34 816.54 87.73 813.92 88.47 809.22C94.9 810.82 107.2 813.04 114.38 809.14C124.38 803.72 131.51 799.93 131.51 799.93L147.24 791.92C147.35 794.55 147.36 796.92 147.29 798.14V798.14Z" fill="black"/>
<path d="M235.47 817.43C234.702 818.857 233.412 819.932 231.87 820.43C231.779 820.463 231.685 820.486 231.59 820.5C226.82 821.5 208.4 821.5 208.4 821.5C208.4 821.5 189.73 807.04 184.13 806.71C178.53 806.38 175.46 801.51 175.46 801.51C175.46 801.51 175.57 798.15 175.93 794.25C176.37 789.64 177.14 784.25 178.49 782.87C180.99 780.27 181.49 776.7 187.16 778.97C187.16 778.97 195.16 764.86 204.6 775.76L214.36 790.57C214.36 790.57 216.2 796.74 228.56 803.35C233.51 806 235.74 809.12 236.33 811.97C236.736 813.833 236.429 815.781 235.47 817.43V817.43Z" fill="#B07473"/>
<path opacity="0.1" d="M235.47 817.43C234.37 818.36 233.14 819.36 231.87 820.43C231.779 820.463 231.685 820.486 231.59 820.5C226.82 821.5 208.4 821.5 208.4 821.5C208.4 821.5 189.73 807.04 184.13 806.71C178.53 806.38 175.46 801.51 175.46 801.51C175.46 801.51 175.57 798.15 175.93 794.25C181.66 795.97 190.36 799 192.69 802.25C196.26 807.25 207.11 814.16 207.11 814.16C207.11 814.16 227.34 812.22 236.33 811.95C236.741 813.82 236.434 815.776 235.47 817.43V817.43Z" fill="black"/>
<path d="M156.73 313.28L130.07 341.45C130.07 341.45 97.7801 339.07 103.42 329.53C106.29 324.68 106.74 314.53 106.49 305.67C106.25 297.14 105.37 289.88 105.37 289.88C105.37 289.88 150.66 267.34 147.19 288.36C146.454 292.322 146.41 296.383 147.06 300.36C149.03 310.98 156.73 313.28 156.73 313.28V313.28Z" fill="#EFB7B9"/>
<path opacity="0.1" d="M147.18 288.36C146.444 292.322 146.4 296.383 147.05 300.36C143.953 303.498 140.263 305.988 136.194 307.686C132.125 309.384 127.759 310.256 123.35 310.25C117.19 310.25 110.6 305.25 105.65 302.3C105.41 293.77 105.36 289.88 105.36 289.88C105.36 289.88 150.65 267.34 147.18 288.36Z" fill="black"/>
<path d="M156.73 275.14C156.733 282.703 154.167 290.043 149.453 295.957C144.739 301.871 138.156 306.009 130.783 307.693C123.411 309.377 115.684 308.508 108.87 305.227C102.056 301.946 96.5574 296.449 93.2759 289.635C89.9944 282.821 89.124 275.095 90.8074 267.721C92.4908 260.348 96.6281 253.765 102.542 249.051C108.455 244.336 115.795 241.77 123.357 241.771C130.92 241.773 138.259 244.343 144.17 249.06C148.087 252.186 151.25 256.153 153.424 260.668C155.598 265.183 156.728 270.129 156.73 275.14V275.14Z" fill="#EFB7B9"/>
<path opacity="0.1" d="M202.12 525.61C193.81 545.39 140.35 545.8 140.35 545.8V524.24L137.11 524.03C138.51 530.2 135.11 545.26 135.11 545.26C92.8601 551.26 82.5701 527.17 82.5701 527.17L84.0301 518.93L116.95 521.86C116.95 521.86 196.95 516.48 200.56 520.95C201.334 522.406 201.861 523.981 202.12 525.61V525.61Z" fill="black"/>
<path d="M140.35 543.2V521.63L137.11 521.43C138.51 527.6 135.11 542.66 135.11 542.66C103.32 547.14 89.6101 534.66 84.7801 528.16C83.9162 527.043 83.1752 525.836 82.5701 524.56L95.4601 451.97L98.4601 345.14L103.11 326.4L104.19 317.4V317.3L104.3 317.35L107.58 318.76L127.26 327.26L149.73 310.39L150.06 310.14L151.17 309.3L153.02 310.79L157.61 314.47L172.35 409.61C172.35 409.61 197.91 482.87 202.65 512.44C202.84 513.62 203 514.72 203.12 515.75C206.23 542.7 140.35 543.2 140.35 543.2V543.2Z" fill="#E1E7EF"/>
<path d="M129.73 331.22C130.779 331.22 131.63 330.369 131.63 329.32C131.63 328.271 130.779 327.42 129.73 327.42C128.681 327.42 127.83 328.271 127.83 329.32C127.83 330.369 128.681 331.22 129.73 331.22Z" fill="#67647E"/>
<path d="M130.61 348.55C131.659 348.55 132.51 347.699 132.51 346.65C132.51 345.601 131.659 344.75 130.61 344.75C129.561 344.75 128.71 345.601 128.71 346.65C128.71 347.699 129.561 348.55 130.61 348.55Z" fill="#67647E"/>
<path d="M132.5 376.62C133.549 376.62 134.4 375.769 134.4 374.72C134.4 373.671 133.549 372.82 132.5 372.82C131.451 372.82 130.6 373.671 130.6 374.72C130.6 375.769 131.451 376.62 132.5 376.62Z" fill="#67647E"/>
<path d="M135.65 406.84C136.699 406.84 137.55 405.989 137.55 404.94C137.55 403.891 136.699 403.04 135.65 403.04C134.601 403.04 133.75 403.891 133.75 404.94C133.75 405.989 134.601 406.84 135.65 406.84Z" fill="#67647E"/>
<path d="M137.54 435.23C138.589 435.23 139.44 434.379 139.44 433.33C139.44 432.281 138.589 431.43 137.54 431.43C136.491 431.43 135.64 432.281 135.64 433.33C135.64 434.379 136.491 435.23 137.54 435.23Z" fill="#67647E"/>
<path d="M139.44 465.46C140.489 465.46 141.34 464.609 141.34 463.56C141.34 462.511 140.489 461.66 139.44 461.66C138.391 461.66 137.54 462.511 137.54 463.56C137.54 464.609 138.391 465.46 139.44 465.46Z" fill="#67647E"/>
<path d="M138.68 495.37C139.729 495.37 140.58 494.519 140.58 493.47C140.58 492.421 139.729 491.57 138.68 491.57C137.631 491.57 136.78 492.421 136.78 493.47C136.78 494.519 137.631 495.37 138.68 495.37Z" fill="#67647E"/>
<path opacity="0.1" d="M105.53 462.53C105.53 462.53 103.41 490.33 99.5299 498.41C95.6499 506.49 93.8899 529.18 93.8899 529.18L84.8899 528.18C84.026 527.063 83.2851 525.856 82.6799 524.58L95.5699 451.99L98.5699 345.16L103.22 326.42L104.3 317.42C104.335 317.393 104.376 317.376 104.42 317.37C104.925 317.132 105.478 317.012 106.036 317.021C106.594 317.029 107.143 317.166 107.64 317.42L108.08 317.64C107.95 318.01 107.82 318.39 107.7 318.78C104.18 329.83 102.86 350.21 102.86 350.21C102.86 350.21 107.92 387.48 108.49 404.82C109.06 422.16 105.53 462.53 105.53 462.53V462.53Z" fill="black"/>
<path opacity="0.1" d="M83.26 523.85C83.1608 524.08 83.0472 524.304 82.92 524.52C79.41 530.45 70.51 534.22 67.8 535.25L67 533.81L68.88 525L78.82 520.95C80.3901 521.771 81.8771 522.742 83.26 523.85V523.85Z" fill="black"/>
<path d="M59.2 381.98L50.97 386.92L43.45 420.29C43.45 420.29 34.06 448.61 41.29 468.83C48.52 489.05 52.7299 500.58 52.7299 500.58C52.7299 500.58 55.62 523.58 59.95 525.43C64.28 527.28 66.1699 528.32 66.1699 528.32L67.0299 533.81C67.0299 533.81 78.7899 529.81 82.9499 522.81C87.1099 515.81 79.8899 498.3 79.8899 498.3C79.8899 498.3 73.6799 483.42 75.2699 476.49C76.8599 469.56 72.0899 451.35 72.0899 450.92C72.0899 450.49 71.6599 440.8 75.0899 433.36C78.5199 425.92 76.25 422.75 76.25 422.75L74.08 401.51L59.2 381.98Z" fill="#67647E"/>
<path opacity="0.1" d="M202.8 519.36C202.8 519.36 180.99 527.6 174.05 520.36C167.11 513.12 167.84 479.36 167.84 479.36C167.84 479.36 161.2 416.95 157 406.7C152.8 396.45 155 322.47 155 322.47C155 322.47 152.16 312.92 149.73 310.39C149.577 310.224 149.402 310.079 149.21 309.96L150.06 310.14L153.06 310.79L157.65 314.47L172.39 409.61C172.39 409.61 197.95 482.87 202.69 512.44L202.8 519.36Z" fill="black"/>
<path opacity="0.1" d="M227.94 521.53H227.69C224.95 521.88 200.69 524.81 200.6 519.77C200.601 519.185 200.634 518.601 200.7 518.02L223.17 515.72L227.62 520.3C227.7 520.6 227.77 520.86 227.83 521.06L227.94 521.53Z" fill="black"/>
<path d="M204.73 348.55L220.68 356.86C220.68 356.86 233.91 391.22 236.08 405.96C236.08 405.96 245.9 445.43 239.08 461.66C232.26 477.89 232.87 510.12 232.87 510.12C232.87 510.12 228.97 516.04 227.38 514.45C225.79 512.86 227.96 520.66 227.96 520.66C227.96 520.66 200.73 524.28 200.6 518.92C200.47 513.56 206.85 488 206.85 488C206.85 488 208.58 427.18 206.12 417.65C203.66 408.12 204.73 348.55 204.73 348.55V348.55Z" fill="#67647E"/>
<path opacity="0.1" d="M157.15 413.33C157.15 413.33 148.15 435.28 145.3 436.73C142.45 438.18 145.88 443.95 145.88 443.95C145.88 443.95 162.21 421.13 157.15 413.33V413.33ZM151.81 336.32C151.91 335.9 141.11 346.91 138.23 348.55C135.35 350.19 148.73 348.46 151.81 336.32ZM121.73 411.59C121.73 411.59 105.26 422.25 107.42 426.45C109.58 430.65 121.73 411.59 121.73 411.59ZM151.66 567.04C151.66 567.04 165.66 576.04 187.49 578.31L151.66 567.04ZM118 588.71C118 588.71 131 605.03 136.93 605.47C142.86 605.91 118 588.71 118 588.71ZM136.2 652.71C135.62 653 128.83 667.44 121.9 667.88C114.97 668.32 136.2 652.71 136.2 652.71ZM196.45 684.34C196.45 684.34 209.33 681.46 212.19 690.7C212.19 690.7 211.33 687.81 196.45 684.34ZM187.78 737.22C187.78 737.22 203.38 734.04 206.7 738.38C210.02 742.72 187.78 737.22 187.78 737.22V737.22ZM143.62 744.59C143.62 744.73 127.73 747.77 128.36 749.79C128.99 751.81 145.3 751.52 145.88 748.34C145.992 747.945 146.021 747.531 145.966 747.125C145.912 746.718 145.774 746.327 145.563 745.975C145.351 745.624 145.069 745.319 144.735 745.081C144.401 744.843 144.021 744.676 143.62 744.59ZM182.58 758.31C182.58 758.31 208.68 755.13 207.04 760.62C205.4 766.11 182.58 758.31 182.58 758.31ZM45.9099 436.73C46.0599 437.16 63.0999 439.47 65.4099 444.96C65.4099 444.96 48.6599 437.16 46.0599 437.16L45.9099 436.73ZM69.8899 481.37C69.8899 481.37 55.7299 485.85 56.7299 492.64C57.7299 499.43 55.2999 489.47 69.8899 481.37ZM63.2899 515.75C63.2899 515.75 68.4499 508.67 73.3599 509.97C78.2699 511.27 63.2899 515.75 63.2899 515.75ZM144.16 249.06C143.661 249.541 143.103 249.958 142.5 250.3C138.39 252.68 137.29 256.3 135.32 260.57C133.52 264.44 131.53 268.57 127.88 270.73C123.18 273.56 116.98 272.52 112.09 275C109.923 276.136 108.143 277.891 106.978 280.043C105.813 282.195 105.316 284.644 105.55 287.08C105.868 288.958 106.336 290.807 106.95 292.61C108.053 296.511 108.556 300.558 108.44 304.61C108.455 304.733 108.455 304.857 108.44 304.98C104.251 302.89 100.548 299.942 97.5725 296.328C94.5968 292.713 92.4148 288.513 91.168 284.001C89.9212 279.488 89.6376 274.764 90.3356 270.135C91.0336 265.505 92.6976 261.075 95.2195 257.13C97.7414 253.186 101.065 249.816 104.974 247.24C108.883 244.664 113.29 242.939 117.909 242.176C122.528 241.414 127.256 241.633 131.786 242.817C136.315 244.001 140.545 246.125 144.2 249.05L144.16 249.06Z" fill="black"/>
<path d="M143.29 239.02C139.62 231.31 131.65 226.44 123.45 224.02C117.19 222.21 110.4 221.62 104.19 223.61C100.65 224.74 97.4201 226.61 94.1101 228.33C87.9201 231.46 81.1101 233.93 76.4601 239.07C75.3801 240.26 74.3801 241.8 74.7001 243.38C74.9401 244.56 75.8601 245.46 76.4501 246.51C77.7801 248.85 77.4501 251.8 76.5401 254.35C75.6301 256.9 74.3001 259.28 73.6601 261.9C73.0201 264.52 73.2701 267.59 75.2101 269.46C76.1474 270.203 77.122 270.897 78.1301 271.54C79.1899 272.462 80.1215 273.521 80.9001 274.69L86.4101 282.22C89.0015 285.562 91.3095 289.114 93.3101 292.84C94.6901 295.57 95.7501 298.49 97.5801 300.93C99.4101 303.37 102.28 305.33 105.32 305.06C105.555 305.068 105.788 305.019 106.001 304.918C106.213 304.818 106.398 304.667 106.54 304.48C106.66 304.242 106.715 303.976 106.7 303.71C106.824 299.657 106.322 295.609 105.21 291.71C104.596 289.907 104.128 288.058 103.81 286.18C103.578 283.745 104.075 281.295 105.24 279.144C106.405 276.993 108.184 275.237 110.35 274.1C115.25 271.63 121.45 272.67 126.15 269.84C129.8 267.63 131.79 263.54 133.59 259.67C135.59 255.44 136.66 251.78 140.77 249.4C144.88 247.02 145.32 243.07 143.29 239.02Z" fill="#585268"/>
<path opacity="0.1" d="M128.34 784.5C128.34 784.5 133.42 791 132.12 794.68C130.82 798.36 128.34 784.5 128.34 784.5ZM197.41 800.75C197.41 800.75 198.54 792.03 203.09 791.95C207.64 791.87 207.86 791.48 211.33 792.81C214.8 794.14 218.05 796.22 217.02 796.54C215.99 796.86 211.02 791.54 206.02 794.25C202.843 795.977 199.942 798.168 197.41 800.75V800.75ZM113.11 338.15L127.35 328.15C127.35 328.15 106.44 315.79 103.95 317.53C101.46 319.27 99.75 334.87 99.75 334.87L113.11 338.15Z" fill="black"/>
<path d="M113.05 337.5L127.35 327.26C127.35 327.26 106.44 314.91 103.95 316.64C101.46 318.37 99.75 334.85 99.75 334.85L113.05 337.5Z" fill="#E1E7EF"/>
<path opacity="0.03" d="M113.05 337.5L127.35 327.26C127.35 327.26 106.44 314.91 103.95 316.64C101.46 318.37 99.75 334.85 99.75 334.85L113.05 337.5Z" fill="black"/>
<path d="M106.31 316.76L105.88 316.54C105.244 316.216 104.528 316.083 103.818 316.157C103.108 316.232 102.435 316.511 101.88 316.96L58.9999 351.75C58.9999 351.75 49.6799 364.64 50.9999 386.89L76.2799 422.72C76.2799 422.72 79.1699 410.58 82.6399 412.89C82.6399 412.89 87.5499 475.01 82.6399 483.97C77.7299 492.93 75.5599 526.44 75.5599 526.44L92.1699 528.32C92.1699 528.32 93.8999 505.64 97.7999 497.55C101.7 489.46 103.8 461.66 103.8 461.66C103.8 461.66 107.31 421.27 106.73 403.92C106.15 386.57 101.1 349.32 101.1 349.32C101.1 349.32 102.51 327.48 106.31 316.76V316.76Z" fill="#67647E"/>
<path opacity="0.1" d="M149.02 331.81L131.21 325.21C131.21 325.21 153.9 300.37 156.72 314.15L149.02 331.81Z" fill="black"/>
<path d="M149.02 330.92L131.21 324.33C131.21 324.33 153.9 299.48 156.72 313.26L149.02 330.92Z" fill="#E1E7EF"/>
<path opacity="0.03" d="M149.02 330.92L131.21 324.33C131.21 324.33 153.9 299.48 156.72 313.26L149.02 330.92Z" fill="black"/>
<path opacity="0.1" d="M148.45 309.81C148.704 309.764 148.965 309.818 149.18 309.96L148.45 309.81Z" fill="black"/>
<path d="M150.18 308.07L197.46 318.27C197.46 318.27 210.46 321.16 219.85 353.8C229.24 386.44 206.99 426.45 206.99 426.45L202.08 422.28L204.54 517.63C204.54 517.63 182.72 525.86 175.79 518.63C168.86 511.4 169.57 477.63 169.57 477.63C169.57 477.63 162.93 415.2 158.73 404.92C154.53 394.64 156.73 320.69 156.73 320.69C156.73 320.69 152.82 307.5 150.18 308.07V308.07Z" fill="#67647E"/>
<path opacity="0.1" d="M193.41 368.83C192.74 369.45 191.97 398.3 194.86 420.26C196.633 433.633 199.37 446.861 203.05 459.84L198.76 371.84C198.76 371.84 195.43 366.92 193.41 368.83ZM187.63 343.98C188.79 344.7 193.85 356.69 191.53 361.61C189.21 366.53 187.63 343.98 187.63 343.98ZM143.01 239.02C140.694 234.449 137.08 230.664 132.62 228.14C135.931 230.501 138.607 233.645 140.41 237.29C142.41 241.34 141.85 245.4 137.88 247.7C133.91 250 132.67 253.7 130.71 257.97C128.91 261.84 126.91 265.97 123.26 268.13C118.56 270.97 112.37 269.93 107.47 272.39C105.303 273.528 103.524 275.286 102.359 277.439C101.194 279.592 100.697 282.043 100.93 284.48C101.243 286.359 101.711 288.209 102.33 290.01C103.44 293.91 103.939 297.958 103.81 302.01C103.827 302.275 103.776 302.541 103.66 302.78C103.518 302.967 103.333 303.118 103.12 303.218C102.908 303.319 102.675 303.368 102.44 303.36C101.216 303.456 99.9881 303.228 98.8799 302.7C99.688 303.499 100.652 304.124 101.711 304.535C102.771 304.946 103.904 305.135 105.04 305.09C105.275 305.098 105.508 305.049 105.72 304.948C105.933 304.848 106.118 304.697 106.26 304.51C106.375 304.27 106.43 304.006 106.42 303.74C106.539 299.687 106.037 295.64 104.93 291.74C104.311 289.939 103.843 288.089 103.53 286.21C103.297 283.775 103.795 281.325 104.96 279.174C106.125 277.023 107.904 275.267 110.07 274.13C114.97 271.66 121.16 272.7 125.86 269.87C129.51 267.66 131.51 263.57 133.31 259.7C135.31 255.47 136.37 251.81 140.48 249.43C144.59 247.05 145.03 243.07 143.01 239.02V239.02Z" fill="black"/>
<path opacity="0.1" d="M968.23 767.36C990.874 767.36 1009.23 764.839 1009.23 761.73C1009.23 758.621 990.874 756.1 968.23 756.1C945.586 756.1 927.23 758.621 927.23 761.73C927.23 764.839 945.586 767.36 968.23 767.36Z" fill="#18A0FB"/>
<path opacity="0.1" d="M646.82 818.56C662.914 818.56 675.96 816.769 675.96 814.56C675.96 812.351 662.914 810.56 646.82 810.56C630.726 810.56 617.68 812.351 617.68 814.56C617.68 816.769 630.726 818.56 646.82 818.56Z" fill="#18A0FB"/>
<path opacity="0.1" d="M386.08 788.91C402.174 788.91 415.22 787.119 415.22 784.91C415.22 782.701 402.174 780.91 386.08 780.91C369.986 780.91 356.94 782.701 356.94 784.91C356.94 787.119 369.986 788.91 386.08 788.91Z" fill="#18A0FB"/>
<path d="M402.13 775.81C403.966 774.314 405.302 772.295 405.96 770.02C406.46 767.73 405.48 764.97 403.28 764.13C400.82 763.19 398.19 764.9 396.2 766.62C394.21 768.34 391.92 770.31 389.32 769.94C390.66 768.723 391.662 767.18 392.23 765.461C392.798 763.742 392.911 761.906 392.56 760.13C392.442 759.396 392.131 758.705 391.66 758.13C390.29 756.67 387.81 757.3 386.18 758.45C380.98 762.1 379.53 769.17 379.5 775.52C378.98 773.23 379.42 770.84 379.4 768.52C379.38 766.2 378.75 763.52 376.76 762.3C375.537 761.623 374.158 761.278 372.76 761.3C370.43 761.21 367.82 761.45 366.23 763.16C364.23 765.28 364.76 768.84 366.48 771.16C368.2 773.48 370.83 774.97 373.25 776.58C375.186 777.734 376.837 779.31 378.08 781.19C378.23 781.453 378.35 781.731 378.44 782.02H393.1C396.373 780.361 399.41 778.273 402.13 775.81V775.81ZM984.86 754.71C986.707 753.217 988.057 751.198 988.73 748.92C989.23 746.63 988.25 743.92 986.05 743.03C983.59 742.09 980.96 743.8 978.97 745.52C976.98 747.24 974.69 749.21 972.08 748.84C973.424 747.626 974.429 746.083 974.997 744.363C975.565 742.644 975.676 740.806 975.32 739.03C975.212 738.293 974.9 737.6 974.42 737.03C973.06 735.57 970.58 736.2 968.95 737.35C963.75 741 962.3 748.07 962.27 754.42C961.74 752.13 962.19 749.74 962.17 747.42C962.15 745.1 961.51 742.42 959.53 741.2C958.307 740.523 956.928 740.178 955.53 740.2C953.19 740.11 950.59 740.35 948.99 742.06C946.99 744.18 947.52 747.74 949.25 750.06C950.98 752.38 953.6 753.87 956.02 755.48C957.956 756.634 959.607 758.21 960.85 760.09C960.996 760.355 961.116 760.633 961.21 760.92H975.86C979.123 759.26 982.15 757.172 984.86 754.71V754.71ZM654.73 801.46C656.565 799.962 657.904 797.943 658.57 795.67C659.06 793.37 658.08 790.67 655.89 789.78C653.43 788.84 650.8 790.54 648.81 792.27C646.82 794 644.53 795.95 641.92 795.59C643.262 794.375 644.266 792.832 644.834 791.112C645.402 789.393 645.514 787.556 645.16 785.78C645.047 785.044 644.736 784.353 644.26 783.78C642.89 782.32 640.42 782.95 638.78 784.1C633.58 787.76 632.13 794.82 632.1 801.18C631.58 798.89 632.02 796.5 632.01 794.18C632 791.86 631.35 789.18 629.37 787.96C628.146 787.286 626.767 786.941 625.37 786.96C623.03 786.88 620.43 787.11 618.83 788.82C616.83 790.95 617.36 794.51 619.09 796.82C620.82 799.13 623.44 800.62 625.85 802.24C627.812 803.408 629.481 805.009 630.73 806.92C630.874 807.182 630.994 807.457 631.09 807.74H645.73C649 806.062 652.027 803.95 654.73 801.46V801.46Z" fill="#18A0FB"/>
<path d="M948.59 345.16C935.47 344.9 923.89 335.6 917.33 324.32C915.612 321.626 914.531 318.575 914.17 315.4C914.216 314.676 914.337 313.959 914.53 313.26C914.951 312.202 915.286 311.112 915.53 310C915.585 309.555 915.585 309.105 915.53 308.66V308.6C915.85 306.18 914.43 303.85 912.65 302.18C910.87 300.51 908.7 299.3 906.87 297.69C901.23 292.74 899.52 284.8 899.41 277.24V276.84C899.47 273.61 899.73 270.36 899.7 267.12C899.745 265.28 899.665 263.439 899.46 261.61C898.92 257.03 897.18 252.37 893.58 249.45C884.19 241.84 868.4 249.76 858.69 242.56C856.32 240.81 854.41 238.2 851.55 237.56C849.38 237.04 847.13 237.74 845.02 238.44C837.86 240.8 829.88 243.91 827.08 250.87C825.48 254.87 825.93 259.36 824.46 263.38C823.46 266.07 821.69 268.38 820.37 270.94C819.282 272.859 818.752 275.045 818.84 277.25C818.729 278.391 818.89 279.543 819.31 280.61C819.805 281.885 820.601 283.02 821.63 283.92C821.254 284.713 820.784 285.458 820.23 286.14C818.4 288.38 815.59 289.98 813.69 292.14C810.17 296.22 810.3 301.77 812.04 306.57C813.78 311.37 816.9 315.74 819.04 320.41C819.97 322.41 820.72 324.71 819.75 326.73C819.08 328.13 817.68 329.19 816.59 330.4C814.993 332.191 813.994 334.435 813.73 336.82C792.3 341.71 792.29 358.92 792.29 358.92L780.73 388.06C780.73 388.06 778.88 392.96 776.73 399.43L763.03 396.98L772.49 412.92C770.68 419.41 769.41 425.43 769.83 428.45C769.83 428.45 765.58 448.45 773.14 451.94L789.84 459.45C790.561 459.887 791.338 460.224 792.15 460.45L792.83 460.75C793.073 460.869 793.34 460.931 793.61 460.931C793.88 460.931 794.147 460.869 794.39 460.75H794.66C795 460.785 795.343 460.736 795.66 460.61C796.035 460.414 796.329 460.091 796.49 459.7C796.494 459.67 796.494 459.64 796.49 459.61L801.49 458.16L805.73 463.16C807.64 464.5 809.51 465.67 811.34 466.72L804.82 531.92C804.82 531.92 803.76 618.58 800.57 638.31C799.38 645.62 799.37 650.6 799.82 653.99L799.7 654.21C800.49 659.78 802.54 660.88 802.54 660.88V660.8L802.66 660.88C803.626 658.351 804.772 655.895 806.09 653.53V654.95C806.03 662.31 805.8 672.6 805.09 679.29C803.79 690.67 808.4 728.37 808.4 728.37L809.99 762.67C810.248 768.489 808.899 774.267 806.09 779.37C802.32 786.22 797.41 795.85 797.09 800.12C797.075 800.353 797.075 800.587 797.09 800.82L788.73 810.55C788.73 810.55 785.53 815.48 792.73 817.47C796.6 818.55 803.29 817.47 808.65 816.2C810.994 815.662 813.086 814.346 814.586 812.467C816.086 810.587 816.905 808.255 816.91 805.85C818.291 801.125 820.611 796.728 823.73 792.92L825.08 800.81L834.08 803.04L835.23 781.41C835.697 780.193 835.909 778.892 835.85 777.59C837.62 762.21 831.68 763.59 831.68 763.59C831.831 763.735 831.932 763.924 831.97 764.13C831.87 763.96 831.77 763.78 831.68 763.6C828.03 756.4 829.82 744.6 829.82 744.6C829.82 744.6 834.55 710.32 836.21 701.27C837.38 694.88 836.9 673.94 836.51 662.21C836.51 661.72 836.51 661.21 836.46 660.8C850.39 660.62 867.46 660.14 879.46 658.98V660.4L877.24 741.4C877.091 746.561 876.045 751.657 874.15 756.46C874.15 756.55 874.07 756.64 874.04 756.73C871.385 763.497 869.871 770.657 869.56 777.92L868.56 803.66V804.37C866.77 805.06 863.95 807.05 863.87 812.82C863.75 821.27 878.64 818.45 878.64 818.45C893.53 818.45 893.64 802.95 893.64 802.95C893.64 802.95 894.12 788.74 894.82 779.23C895.52 769.72 892.58 771.82 892.58 771.82L892.36 798.82V799.03V775.32L892.59 771.88V771.78L892.64 771.05L894.49 743.15C894.49 743.15 908.2 696.65 910.33 687.73C911.84 681.4 911.21 662.3 910.71 651.73C910.71 651.24 910.71 650.78 910.65 650.33C914.89 649.95 918.65 649.91 920.16 649.91H920.85C920.85 649.91 920.14 575.23 918.37 547.05C916.6 518.87 913.76 493.15 906.66 485.4C902.38 480.72 896.41 466.26 892.35 455.55C900.817 459.217 909.604 462.096 918.6 464.15C941.06 468.85 937.99 449.35 937.99 449.35L935.71 412.48H935.86C935.778 402.82 934.949 393.182 933.38 383.65C932.2 376.34 930.38 368.78 927.6 362.65C930.04 361.72 932.44 360.65 934.8 359.65C940.9 356.96 947.8 353.14 948.66 346.56H948.36C948.473 346.1 948.55 345.632 948.59 345.16V345.16ZM809.37 398.5C809.43 402.31 809.28 408.91 809.06 416.22L801.93 406.7L809.08 395.1L809.37 398.5ZM907.93 432.21L896.05 428.39C898.159 425.105 900.62 422.061 903.39 419.31L904.39 418.31L904.02 418.39L904.6 417.87L904.94 417.79L904.39 418.31L905.04 418.18C905.758 421.164 907.142 423.948 909.09 426.32C913.33 431.04 907.89 432.21 907.89 432.21H907.93Z" fill="url(#paint4_linear_214_193)"/>
<path d="M835.72 774.95L834.32 801.29L825.46 799.08L823.59 788.12L835.72 774.95Z" fill="#A27772"/>
<path opacity="0.1" d="M835.72 774.95L834.32 801.29L825.46 799.08L823.59 788.12L835.72 774.95Z" fill="black"/>
<path d="M868.24 804.79L881.76 807.59L891.76 798.73V773.78L891.98 770.37V770.27L892.03 769.55L893.85 741.85C893.85 741.85 907.37 695.68 909.47 686.85C910.96 680.56 910.34 661.59 909.85 651.11C909.65 646.81 909.47 643.94 909.47 643.94L879.63 636.71L879 659.71L876.82 740.11C876.671 745.233 875.636 750.291 873.76 755.06L873.66 755.33C871.061 762.066 869.598 769.186 869.33 776.4L868.33 801.95V802.66L868.24 804.79Z" fill="#CC818C"/>
<path opacity="0.1" d="M892.02 769.56V770.27L892.07 769.55L892.02 769.56ZM868.24 804.79L881.76 807.59L891.76 798.73V796.61C891.729 797.081 891.582 797.538 891.33 797.938C891.079 798.337 890.732 798.668 890.32 798.9L890.18 798.98C885.523 801.446 880.245 802.489 875 801.98L869.72 801.53C869.244 801.583 868.777 801.697 868.33 801.87V802.58L868.24 804.79Z" fill="black"/>
<path d="M890.21 799.68L890.35 799.6C890.791 799.354 891.158 798.994 891.413 798.558C891.668 798.122 891.802 797.625 891.8 797.12L892.02 770.26C892.02 770.26 894.94 768.19 894.24 777.63C893.54 787.07 893.07 801.18 893.07 801.18C893.07 801.18 892.96 816.57 878.27 816.57C878.27 816.57 863.58 819.36 863.69 810.97C863.8 802.58 869.76 802.23 869.76 802.23L875.03 802.69C880.275 803.189 885.552 802.143 890.21 799.68V799.68Z" fill="#B07473"/>
<path d="M797.83 799.08C798.18 805.14 816.01 801.64 816.01 801.64L828.01 778.33C828.01 778.33 838.01 770.63 833.01 763.87C832.738 763.504 832.491 763.119 832.27 762.72V762.66C832.16 762.48 832.07 762.3 831.97 762.11C828.37 754.97 830.14 743.26 830.14 743.26C830.14 743.26 834.8 709.26 836.44 700.26C837.59 693.91 837.12 673.12 836.73 661.48C836.58 656.65 836.44 653.39 836.44 653.39L806.82 645.47V654.3C806.76 661.6 806.54 671.82 805.82 678.46C804.54 689.77 809.09 727.19 809.09 727.19L810.66 761.25C810.884 767.015 809.525 772.732 806.73 777.78C803.01 784.58 798.17 794.15 797.83 798.39C797.81 798.62 797.81 798.85 797.83 799.08V799.08Z" fill="#CC818C"/>
<path opacity="0.1" d="M797.83 799.08C798.18 805.14 816.01 801.64 816.01 801.64L828.01 778.33C828.01 778.33 838.01 770.63 833.01 763.87C832.738 763.504 832.491 763.119 832.27 762.72C832.11 766.25 828.27 775.06 828.27 775.06C828.27 775.06 818.36 794.89 815.27 799.43C812.18 803.97 798.42 798.59 797.91 798.43C797.866 798.644 797.839 798.862 797.83 799.08V799.08Z" fill="black"/>
<path d="M831.95 762.09C831.95 762.09 837.81 760.73 836.07 776C836.134 777.736 835.737 779.458 834.92 780.991C834.104 782.524 832.896 783.814 831.42 784.73C827.23 787.37 820.75 793.04 817.48 804.07C817.482 806.452 816.68 808.765 815.202 810.633C813.724 812.501 811.658 813.814 809.34 814.36C804.05 815.59 797.45 816.68 793.63 815.61C786.52 813.61 789.63 808.74 789.63 808.74L797.79 799.06C797.79 799.06 812.01 804.66 815.16 800.11C818.31 795.56 828.16 775.74 828.16 775.74C828.16 775.74 833.73 763.37 831.95 762.09V762.09Z" fill="#B07473"/>
<path opacity="0.1" d="M879.67 639.48L879.04 662.48C887.04 661.71 892.68 660.63 893.66 659.12C895.75 655.87 903.39 654.49 909.89 653.93C909.69 649.63 909.51 646.76 909.51 646.76L879.67 639.48ZM806.79 657.06C807.557 655.509 808.677 654.16 810.06 653.12C813.21 651.37 812.87 664.31 812.87 664.31C812.87 664.31 823.32 664.41 836.71 664.24C836.56 659.4 836.42 656.15 836.42 656.15L806.8 648.23C806.8 648.23 806.84 651.92 806.79 657.06Z" fill="black"/>
<path d="M803.42 660.14C803.42 660.14 806.92 650.67 810.06 648.93C813.2 647.19 812.87 660.12 812.87 660.12C812.87 660.12 889.81 660.82 893.66 654.87C897.51 648.92 919.89 649.28 919.89 649.28C919.89 649.28 919.19 575.13 917.44 547.15C915.69 519.17 912.89 493.64 905.9 485.95C901.37 480.95 894.9 464.86 890.96 454.12C888.79 448.25 887.36 443.98 887.36 443.98L813.92 448.18L813.32 454.12L805.52 532.12C805.52 532.12 804.52 618.12 801.32 637.74C798.12 657.36 803.42 660.14 803.42 660.14V660.14Z" fill="#444053"/>
<g opacity="0.1">
<path opacity="0.1" d="M887.73 654.92C891.57 648.98 913.96 649.33 913.96 649.33C913.96 649.33 913.26 575.18 911.51 547.2C909.76 519.22 906.96 493.69 899.97 486C895.44 481 888.97 464.91 885.03 454.17C883.21 449.24 881.91 445.44 881.54 444.35L887.24 444.03C887.24 444.03 888.67 448.3 890.84 454.17C894.84 464.91 901.25 481.02 905.78 486C912.78 493.69 915.57 519.22 917.32 547.2C919.07 575.18 919.73 649.28 919.73 649.28C919.73 649.28 897.35 648.92 893.51 654.92C890.22 660 833.6 660.23 817.16 660.19C838.24 660.09 884.73 659.46 887.73 654.92ZM804.1 648.92C805.52 648.13 806.23 650.32 806.58 652.92C805.312 655.227 804.206 657.619 803.27 660.08C803.27 660.08 801.27 658.99 800.47 653.46C801.58 651.49 802.87 649.61 804.1 648.92V648.92Z" fill="black"/>
</g>
<path d="M826.11 264.58C821.03 271.52 826.17 281.37 820.72 288.11C818.92 290.34 816.15 291.93 814.27 294.11C810.79 298.17 810.93 303.67 812.64 308.44C814.35 313.21 817.44 317.54 819.56 322.18C820.48 324.18 821.22 326.45 820.27 328.45C819.61 329.84 818.27 330.89 817.15 332.1C813.65 336.01 813.55 341.45 815.43 346.05C817.31 350.65 820.92 354.64 824.43 358.52C825.83 360.06 827.6 361.75 829.93 361.71C831.157 361.61 832.344 361.22 833.39 360.57C841.685 356.203 847.977 348.807 850.96 339.92C853.481 331.559 852.949 322.575 849.46 314.57C846.46 307.5 841.58 300.72 841.54 293.24C841.54 287.31 844.59 281.65 845.13 275.74C845.79 268.57 841.54 257.17 832.88 254.04C833.45 258.67 828.73 261.06 826.11 264.58V264.58Z" fill="#585268"/>
<path opacity="0.1" d="M826.11 264.58C821.03 271.52 826.17 281.37 820.72 288.11C818.92 290.34 816.15 291.93 814.27 294.11C810.79 298.17 810.93 303.67 812.64 308.44C814.35 313.21 817.44 317.54 819.56 322.18C820.48 324.18 821.22 326.45 820.27 328.45C819.61 329.84 818.27 330.89 817.15 332.1C813.65 336.01 813.55 341.45 815.43 346.05C817.31 350.65 820.92 354.64 824.43 358.52C825.83 360.06 827.6 361.75 829.93 361.71C831.157 361.61 832.344 361.22 833.39 360.57C841.685 356.203 847.977 348.807 850.96 339.92C853.481 331.559 852.949 322.575 849.46 314.57C846.46 307.5 841.58 300.72 841.54 293.24C841.54 287.31 844.59 281.65 845.13 275.74C845.79 268.57 841.54 257.17 832.88 254.04C833.45 258.67 828.73 261.06 826.11 264.58V264.58ZM882.5 516.7C872.32 517.24 862.74 521.61 853.83 526.56C844.92 531.51 836.3 537.16 826.71 540.64L882.5 516.7ZM876.17 540.68C866.099 541.646 856.712 546.208 849.73 553.53C847.26 556.15 845.13 559.09 842.55 561.6C838.595 565.443 833.714 568.199 828.38 569.6L876.17 540.68ZM878.26 558.92C870.141 561.173 862.793 565.603 857.01 571.73C855.45 573.41 854.01 575.22 852.47 576.89C844.04 585.89 832.14 590.74 820.65 595.28" fill="black"/>
<path d="M877.39 305.83C877.618 313.964 878.319 322.078 879.49 330.13C880.43 335.87 881.77 340.98 883.69 343.25C889.28 349.9 856.41 358.82 856.41 358.82L837 343.82C837 343.82 852.39 329.65 845.22 315.82C838.05 301.99 877.39 305.83 877.39 305.83V305.83Z" fill="#CC818C"/>
<path opacity="0.1" d="M813.32 454.12H890.96C888.79 448.25 887.36 443.98 887.36 443.98L813.92 448.18L813.32 454.12Z" fill="black"/>
<path d="M808.32 452.72H891.32C888.99 444.38 891.32 436.65 894.65 430.72C896.977 426.554 899.905 422.753 903.34 419.44L903.91 418.93L932.91 412.5L934.47 412.16C934.47 412.16 934.7 359.47 916.05 352.24C897.4 345.01 886.2 335.24 886.2 335.24L860.56 343.16L841.67 333.61C835.61 340.14 819.52 337.61 819.52 337.61C793.17 340.61 793.17 360.46 793.17 360.46C793.17 360.46 808.56 396.37 809.73 396.37C810.9 396.37 808.32 452.72 808.32 452.72V452.72Z" fill="#67647E"/>
<path opacity="0.1" d="M836.98 419.22C836.98 419.22 820.05 415.47 814.29 408.91L836.98 419.22ZM922.33 399.56L902.73 415.65C902.872 416.922 903.089 418.184 903.38 419.43L903.95 418.92L932.95 412.49L922.33 399.56ZM869.17 447.13C869.17 447.13 873.47 449.55 880.05 452.72H891.33C889 444.38 891.33 436.65 894.66 430.72L874.73 424.27C881.53 430.57 869.17 447.13 869.17 447.13V447.13Z" fill="black"/>
<path d="M804.82 354.1L793.16 360.39L781.73 389.3C781.73 389.3 769.84 421.01 771 429.41C771 429.41 766.81 449.22 774.27 452.72L793.73 461.52C794.073 461.676 794.456 461.72 794.825 461.646C795.194 461.573 795.531 461.386 795.788 461.111C796.045 460.836 796.21 460.487 796.258 460.114C796.307 459.741 796.238 459.362 796.06 459.03C793.29 453.78 790.25 445.58 795.06 441.03L789.46 429.38L809.73 396.3L816.48 384.92L804.82 354.1Z" fill="#67647E"/>
<path opacity="0.1" d="M830.73 412.6C831.73 416.72 835.15 423.05 846.43 425.44L858.85 435.58L872.02 441.58L877.38 444.01L879.66 427.57L874.49 424.74L868.49 421.45C868.49 421.45 854.9 396.81 833.37 407.22C832.381 407.68 831.58 408.465 831.1 409.444C830.619 410.423 830.489 411.537 830.73 412.6V412.6Z" fill="black"/>
<path d="M831.44 411.2C832.44 415.32 835.86 421.65 847.14 424.04L859.56 434.19L872.73 440.19L878.09 442.62L880.37 426.18L875.2 423.36L869.2 420.06C869.2 420.06 855.61 395.43 834.08 405.83C833.093 406.289 832.294 407.073 831.813 408.05C831.333 409.026 831.201 410.138 831.44 411.2V411.2Z" fill="#CC818C"/>
<path opacity="0.1" d="M855.7 327.17C872.313 327.17 885.78 313.703 885.78 297.09C885.78 280.477 872.313 267.01 855.7 267.01C839.087 267.01 825.62 280.477 825.62 297.09C825.62 313.703 839.087 327.17 855.7 327.17Z" fill="black"/>
<path d="M855.7 326.47C872.313 326.47 885.78 313.003 885.78 296.39C885.78 279.777 872.313 266.31 855.7 266.31C839.087 266.31 825.62 279.777 825.62 296.39C825.62 313.003 839.087 326.47 855.7 326.47Z" fill="#CC818C"/>
<path opacity="0.1" d="M874.33 360.65L865.33 343.07C865.33 343.07 878.57 337.73 879.53 331.53C880.49 325.33 892.21 338.79 889.67 343.25C887.13 347.71 874.33 360.65 874.33 360.65Z" fill="black"/>
<path d="M874.33 359.25L865.33 341.67C865.33 341.67 878.57 336.33 879.53 330.13C880.49 323.93 892.21 337.4 889.67 341.85C887.13 346.3 874.33 359.25 874.33 359.25Z" fill="#67647E"/>
<path d="M800.32 404.65L850.32 471.84C850.32 471.84 831.9 481.84 806.48 463.91L795.48 450.86L764.23 398.16L800.32 404.65Z" fill="#F6F8FB"/>
<path d="M790.48 441.18L795.03 441.06C795.03 441.06 822.83 414.06 829.65 427.72C836.47 441.38 812.34 454.12 812.34 454.12L805 458.12L795.38 460.92L789.26 452.7L790.48 441.18Z" fill="#CC818C"/>
<path opacity="0.1" d="M797.19 455.76C797.61 457.31 798.01 459.02 797.31 460.46C797.148 460.849 796.854 461.168 796.48 461.36C796.164 461.492 795.82 461.54 795.48 461.5C793.072 461.294 790.831 460.183 789.21 458.39C787.61 456.61 786.242 454.634 785.14 452.51C783.9 450.36 782.61 447.96 783.06 445.51C783.55 442.83 785.94 440.97 788.22 439.51C792.83 436.46 792.94 440.01 793.99 443.93L797.19 455.76Z" fill="black"/>
<path d="M796.49 455.76C796.91 457.31 797.31 459.02 796.61 460.46C796.448 460.849 796.154 461.168 795.78 461.36C795.464 461.492 795.12 461.54 794.78 461.5C792.372 461.294 790.131 460.183 788.51 458.39C786.91 456.61 785.542 454.634 784.44 452.51C783.2 450.36 781.91 447.96 782.36 445.51C782.85 442.83 785.24 440.97 787.52 439.51C792.13 436.46 792.24 440.01 793.29 443.93L796.49 455.76Z" fill="#67647E"/>
<path opacity="0.1" d="M809.72 396.3L812.05 392.37L810.01 399.67L809.72 396.3V396.3ZM872.73 440.15L878.09 442.58L880.37 426.14L875.2 423.32C878.73 427.38 875.64 434.92 872.73 440.15ZM894.24 421.07C894.24 421.07 876.93 422.12 869.59 417.4Z" fill="black"/>
<g opacity="0.1">
<path opacity="0.1" d="M892.09 432.11C894.423 427.945 897.354 424.144 900.79 420.83C901.614 420.312 902.469 419.844 903.35 419.43L930.35 413.89L931.91 413.55C931.91 413.55 932.15 360.86 913.49 353.63C903.033 349.642 893.229 344.118 884.4 337.24L886.45 336.61C886.45 336.61 897.64 346.4 916.29 353.61C934.94 360.82 934.73 413.55 934.73 413.55H931.93L904.29 418.84L902.73 420.33C899.264 423.796 896.293 427.723 893.9 432C890.252 438.783 889.422 446.73 891.59 454.12H888.73C886.43 445.78 888.8 438.05 892.09 432.11ZM818.4 339.12C818.85 339.06 819.28 338.99 819.74 338.94C821.632 339.207 823.539 339.364 825.45 339.41C823.096 339.475 820.741 339.378 818.4 339.12V339.12ZM857.98 344.53L840.9 335.92C841.254 335.641 841.588 335.337 841.9 335.01L859.72 344.01L857.98 344.53Z" fill="black"/>
</g>
<path d="M923.03 398.16L934.46 412.16L936.79 450.16C936.79 450.16 939.79 469.51 917.67 464.85C895.55 460.19 869.87 445.73 869.87 445.73C869.87 445.73 882.23 429.17 875.47 422.88L907.18 433.14C907.18 433.14 912.54 431.97 908.34 427.31C904.14 422.65 903.4 414.25 903.4 414.25L923.03 398.16Z" fill="#67647E"/>
<path opacity="0.1" d="M928.16 438.27L934.46 445.49C932.841 444.995 931.392 444.056 930.279 442.78C929.165 441.504 928.431 439.942 928.16 438.27V438.27ZM917.44 437.1L927.23 449.69L922.34 450.86L917.44 437.1ZM819.79 282.58C818.71 279.95 819.53 276.91 820.79 274.38C822.05 271.85 823.86 269.55 824.79 266.87C826.24 262.87 825.79 258.39 827.37 254.45C830.14 247.55 838.01 244.45 845.07 242.12C847.15 241.43 849.37 240.73 851.51 241.24C854.33 241.92 856.22 244.51 858.51 246.24C868.09 253.38 883.66 245.52 892.92 253.08C896.47 255.97 898.19 260.61 898.72 265.15C899.25 269.69 898.72 274.3 898.67 278.88C898.52 286.88 900.01 295.66 906.02 300.97C907.83 302.57 909.96 303.78 911.72 305.43C913.48 307.08 914.87 309.43 914.56 311.8C914.311 312.901 913.977 313.981 913.56 315.03C912.36 319.21 914.14 323.64 916.31 327.41C922.79 338.61 934.2 347.84 947.15 348.1C946.28 354.63 939.5 358.42 933.48 361.1C925.81 364.51 917.75 367.86 909.37 367.43C900.99 367 892.25 361.64 890.76 353.43C890.25 350.6 890.32 347.13 887.86 345.64C886.38 344.74 884.46 344.97 882.86 344.29C880.55 343.29 879.4 340.75 878.64 338.35C877.079 333.417 876.24 328.284 876.15 323.11C876.05 316.98 876.87 310.29 873.39 305.24C870.17 300.57 864.45 298.24 860.74 293.9C857.32 289.9 853.59 285.12 847.98 284.36C840.44 283.27 824.38 293.82 819.79 282.58V282.58Z" fill="black"/>
<path d="M819.79 281.18C818.71 278.55 819.53 275.51 820.79 272.98C822.05 270.45 823.86 268.15 824.79 265.47C826.24 261.47 825.79 256.99 827.37 253.05C830.14 246.15 838.01 243.05 845.07 240.72C847.15 240.03 849.37 239.33 851.51 239.84C854.33 240.52 856.22 243.11 858.51 244.84C868.09 251.99 883.66 244.12 892.92 251.68C896.47 254.58 898.19 259.21 898.72 263.75C899.25 268.29 898.72 272.9 898.67 277.48C898.52 285.48 900.01 294.26 906.02 299.57C907.83 301.17 909.96 302.38 911.72 304.03C913.48 305.68 914.87 308.03 914.56 310.4C914.31 311.504 913.976 312.587 913.56 313.64C912.36 317.81 914.14 322.25 916.31 326.01C922.79 337.21 934.2 346.44 947.15 346.7C946.28 353.23 939.5 357.02 933.48 359.7C925.81 363.12 917.75 366.46 909.37 366.03C900.99 365.6 892.25 360.24 890.76 351.98C890.25 349.15 890.32 345.68 887.86 344.19C886.38 343.29 884.46 343.52 882.86 342.84C880.55 341.84 879.4 339.3 878.64 336.9C877.079 331.967 876.24 326.834 876.15 321.66C876.05 315.53 876.87 308.84 873.39 303.79C870.17 299.12 864.45 296.79 860.74 292.45C857.32 288.45 853.59 283.67 847.98 282.91C840.44 281.92 824.38 292.42 819.79 281.18V281.18Z" fill="#585268"/>
<path opacity="0.1" d="M841.11 358.47L858.35 344.47C858.35 344.47 846.55 338.07 845.14 332.61C843.73 327.15 834.29 335.2 835.25 340.1C836.21 345 841.11 358.47 841.11 358.47Z" fill="black"/>
<path d="M841.81 356.37L859.05 342.37C859.05 342.37 847.25 335.97 845.84 330.51C844.43 325.05 834.99 333.1 835.95 338C836.91 342.9 841.81 356.37 841.81 356.37Z" fill="#67647E"/>
<path opacity="0.1" d="M859.72 355.46C860.477 355.46 861.09 354.847 861.09 354.09C861.09 353.333 860.477 352.72 859.72 352.72C858.963 352.72 858.35 353.333 858.35 354.09C858.35 354.847 858.963 355.46 859.72 355.46Z" fill="black"/>
<path opacity="0.1" d="M859.72 363.08C860.477 363.08 861.09 362.467 861.09 361.71C861.09 360.953 860.477 360.34 859.72 360.34C858.963 360.34 858.35 360.953 858.35 361.71C858.35 362.467 858.963 363.08 859.72 363.08Z" fill="black"/>
<path opacity="0.1" d="M859.72 370.69C860.477 370.69 861.09 370.077 861.09 369.32C861.09 368.563 860.477 367.95 859.72 367.95C858.963 367.95 858.35 368.563 858.35 369.32C858.35 370.077 858.963 370.69 859.72 370.69Z" fill="black"/>
<g opacity="0.1">
<path opacity="0.1" d="M826.73 261.75C828.09 258 827.8 253.8 829.07 250.03C828.487 250.866 828.001 251.765 827.62 252.71C826.04 256.65 826.48 261.15 825.04 265.14C825.04 265.21 824.97 265.29 824.94 265.37C825.646 264.22 826.245 263.009 826.73 261.75V261.75ZM935.52 355.98C927.85 359.4 919.79 362.74 911.4 362.31C903.01 361.88 894.29 356.52 892.8 348.26C892.29 345.43 892.36 341.96 889.9 340.47C888.42 339.57 886.5 339.8 884.9 339.12C882.58 338.12 881.44 335.58 880.68 333.18C879.117 328.24 878.278 323.1 878.19 317.92C878.09 311.79 878.9 305.1 875.43 300.05C872.21 295.38 866.49 293.05 862.78 288.71C859.35 284.71 855.63 279.93 850.01 279.17C842.31 278.17 826.24 288.67 821.66 277.43C820.926 275.305 821.029 272.981 821.95 270.93C821.62 271.49 821.3 272.05 821.01 272.62C819.71 275.15 818.89 278.19 820.01 280.82C824.6 292.06 840.66 281.51 848.37 282.56C853.98 283.32 857.71 288.13 861.14 292.1C864.85 296.4 870.56 298.77 873.78 303.45C877.26 308.45 876.45 315.19 876.55 321.31C876.632 326.487 877.468 331.624 879.03 336.56C879.79 338.95 880.94 341.56 883.25 342.5C884.85 343.17 886.77 342.95 888.25 343.85C890.7 345.33 890.64 348.85 891.14 351.63C892.63 359.89 901.37 365.26 909.75 365.69C918.13 366.12 926.2 362.77 933.86 359.35C939.38 356.9 945.53 353.49 947.18 347.91C944.5 351.58 939.82 354.07 935.52 355.98Z" fill="black"/>
</g>
</g>
<defs>
<linearGradient id="paint0_linear_214_193" x1="352.43" y1="317.15" x2="352.43" y2="135.71" gradientUnits="userSpaceOnUse">
<stop stop-color="#808080" stop-opacity="0.25"/>
<stop offset="0.54" stop-color="#808080" stop-opacity="0.12"/>
<stop offset="1" stop-color="#808080" stop-opacity="0.1"/>
</linearGradient>
<linearGradient id="paint1_linear_214_193" x1="174455" y1="94503.6" x2="174455" y2="65375.4" gradientUnits="userSpaceOnUse">
<stop stop-color="#808080" stop-opacity="0.25"/>
<stop offset="0.54" stop-color="#808080" stop-opacity="0.12"/>
<stop offset="1" stop-color="#808080" stop-opacity="0.1"/>
</linearGradient>
<linearGradient id="paint2_linear_214_193" x1="209.768" y1="343.87" x2="209.768" y2="343.839" gradientUnits="userSpaceOnUse">
<stop stop-color="#808080" stop-opacity="0.25"/>
<stop offset="0.54" stop-color="#808080" stop-opacity="0.12"/>
<stop offset="1" stop-color="#808080" stop-opacity="0.1"/>
</linearGradient>
<linearGradient id="paint3_linear_214_193" x1="47183.2" y1="515475" x2="47183.2" y2="151256" gradientUnits="userSpaceOnUse">
<stop stop-color="#808080" stop-opacity="0.25"/>
<stop offset="0.54" stop-color="#808080" stop-opacity="0.12"/>
<stop offset="1" stop-color="#808080" stop-opacity="0.1"/>
</linearGradient>
<linearGradient id="paint4_linear_214_193" x1="176007" y1="494497" x2="176007" y2="156330" gradientUnits="userSpaceOnUse">
<stop stop-color="#808080" stop-opacity="0.25"/>
<stop offset="0.54" stop-color="#808080" stop-opacity="0.12"/>
<stop offset="1" stop-color="#808080" stop-opacity="0.1"/>
</linearGradient>
<clipPath id="clip0_214_193">
<rect width="1023.46" height="837.84" fill="white"/>
</clipPath>
</defs>
</svg>
