<svg width="512" height="512" fill="none" xmlns="http://www.w3.org/2000/svg"><path d="M349.33 69.33a93.62 93.62 0 0 1 93.34 93.34v186.66a93.624 93.624 0 0 1-27.42 65.92 93.624 93.624 0 0 1-65.92 27.42H162.67a93.623 93.623 0 0 1-93.34-93.34V162.67a93.62 93.62 0 0 1 93.34-93.34h186.66Zm0-37.33H162.67C90.8 32 32 90.8 32 162.67v186.66C32 421.2 90.8 480 162.67 480h186.66C421.2 480 480 421.2 480 349.33V162.67C480 90.8 421.2 32 349.33 32Z" fill="#fff"/><path d="M377.33 162.67a27.998 27.998 0 0 1-19.799-47.799 27.997 27.997 0 0 1 43.08 4.243 27.998 27.998 0 0 1 4.719 15.556 27.94 27.94 0 0 1-28 28ZM256 181.33a74.667 74.667 0 0 1 68.986 46.095A74.667 74.667 0 0 1 308.8 308.8a74.675 74.675 0 0 1-81.375 16.186A74.672 74.672 0 0 1 181.33 256 74.747 74.747 0 0 1 256 181.33Zm0-37.33a112.004 112.004 0 0 0-103.475 69.139 111.998 111.998 0 0 0 24.279 122.057 112.006 112.006 0 0 0 172.321-16.972A112 112 0 0 0 256 144Z" fill="#fff"/></svg>