<svg width="512" height="512" fill="none" xmlns="http://www.w3.org/2000/svg"><path d="M496 109.5a201.773 201.773 0 0 1-56.55 15.3 97.509 97.509 0 0 0 43.33-53.6 197.736 197.736 0 0 1-62.56 23.5A99.14 99.14 0 0 0 348.31 64c-54.42 0-98.46 43.4-98.46 96.9a93.18 93.18 0 0 0 2.54 22.1 280.695 280.695 0 0 1-203-101.3A95.69 95.69 0 0 0 36 130.4c0 33.6 17.53 63.3 44 80.7A97.498 97.498 0 0 1 35.22 199v1.2c0 47 34 86.1 79 95a100.742 100.742 0 0 1-25.94 3.4 94.36 94.36 0 0 1-18.51-1.8c12.51 38.5 48.92 66.5 92.05 67.3A199.587 199.587 0 0 1 39.5 405.6a202.82 202.82 0 0 1-23.5-1.4A278.675 278.675 0 0 0 166.74 448c181.36 0 280.44-147.7 280.44-275.8 0-4.2-.11-8.4-.31-12.5A198.474 198.474 0 0 0 496 109.5Z" fill="#fff"/></svg>