<svg width="1035" height="739" viewBox="0 0 1035 739" fill="none" xmlns="http://www.w3.org/2000/svg">
<g filter="url(#filter0_d_214_63)">
<path d="M950 10H30C18.9543 10 10 18.9543 10 30V590C10 601.046 18.9543 610 30 610H950C961.046 610 970 601.046 970 590V30C970 18.9543 961.046 10 950 10Z" fill="black"/>
</g>
<path d="M950 10H30C18.9543 10 10 18.9543 10 30V590C10 601.046 18.9543 610 30 610H950C961.046 610 970 601.046 970 590V30C970 18.9543 961.046 10 950 10Z" fill="white"/>
<g filter="url(#filter1_d_214_63)">
<path d="M30 10H950C961.046 10 970 18.954 970 30V74H10V30C10 18.954 18.954 10 30 10Z" fill="black"/>
</g>
<path d="M30 10H950C961.046 10 970 18.954 970 30V74H10V30C10 18.954 18.954 10 30 10Z" fill="#00252E"/>
<path d="M277 30H87C84.2386 30 82 32.2386 82 35V49C82 51.7614 84.2386 54 87 54H277C279.761 54 282 51.7614 282 49V35C282 32.2386 279.761 30 277 30Z" fill="#E1E8EE"/>
<path d="M904 32H876C874.895 32 874 32.8954 874 34C874 35.1046 874.895 36 876 36H904C905.105 36 906 35.1046 906 34C906 32.8954 905.105 32 904 32Z" fill="#D8D8D8"/>
<path d="M904 40H876C874.895 40 874 40.8954 874 42C874 43.1046 874.895 44 876 44H904C905.105 44 906 43.1046 906 42C906 40.8954 905.105 40 904 40Z" fill="#D8D8D8"/>
<path d="M904 48H876C874.895 48 874 48.8954 874 50C874 51.1046 874.895 52 876 52H904C905.105 52 906 51.1046 906 50C906 48.8954 905.105 48 904 48Z" fill="#D8D8D8"/>
<path d="M130 244C156.51 244 178 222.51 178 196C178 169.49 156.51 148 130 148C103.49 148 82 169.49 82 196C82 222.51 103.49 244 130 244Z" fill="url(#paint0_linear_214_63)"/>
<path d="M346 160H237C235.343 160 234 161.343 234 163V173C234 174.657 235.343 176 237 176H346C347.657 176 349 174.657 349 173V163C349 161.343 347.657 160 346 160Z" fill="#E1E8EE"/>
<path d="M631 192H237C235.343 192 234 193.343 234 195V197C234 198.657 235.343 200 237 200H631C632.657 200 634 198.657 634 197V195C634 193.343 632.657 192 631 192Z" fill="#E1E8EE"/>
<path d="M597.667 208H237C235.343 208 234 209.343 234 211V213C234 214.657 235.343 216 237 216H597.667C599.324 216 600.667 214.657 600.667 213V211C600.667 209.343 599.324 208 597.667 208Z" fill="#E1E8EE"/>
<path d="M564.333 224H237C235.343 224 234 225.343 234 227V229C234 230.657 235.343 232 237 232H564.333C565.99 232 567.333 230.657 567.333 229V227C567.333 225.343 565.99 224 564.333 224Z" fill="#E1E8EE"/>
<path d="M694 208C700.627 208 706 202.627 706 196C706 189.373 700.627 184 694 184C687.373 184 682 189.373 682 196C682 202.627 687.373 208 694 208Z" fill="#A7B9C8"/>
<path d="M758 208C764.627 208 770 202.627 770 196C770 189.373 764.627 184 758 184C751.373 184 746 189.373 746 196C746 202.627 751.373 208 758 208Z" fill="#A7B9C8"/>
<path d="M726 208C732.627 208 738 202.627 738 196C738 189.373 732.627 184 726 184C719.373 184 714 189.373 714 196C714 202.627 719.373 208 726 208Z" fill="#A7B9C8"/>
<path d="M790 208C796.627 208 802 202.627 802 196C802 189.373 796.627 184 790 184C783.373 184 778 189.373 778 196C778 202.627 783.373 208 790 208Z" fill="#A7B9C8"/>
<path d="M822 208C828.627 208 834 202.627 834 196C834 189.373 828.627 184 822 184C815.373 184 810 189.373 810 196C810 202.627 815.373 208 822 208Z" fill="#A7B9C8"/>
<path d="M127 374C151.853 374 172 353.853 172 329C172 304.147 151.853 284 127 284C102.147 284 82 304.147 82 329C82 353.853 102.147 374 127 374Z" fill="url(#paint1_linear_214_63)"/>
<path d="M343 293H234C232.343 293 231 294.343 231 296V306C231 307.657 232.343 309 234 309H343C344.657 309 346 307.657 346 306V296C346 294.343 344.657 293 343 293Z" fill="#E1E8EE"/>
<path d="M628 325H234C232.343 325 231 326.343 231 328V330C231 331.657 232.343 333 234 333H628C629.657 333 631 331.657 631 330V328C631 326.343 629.657 325 628 325Z" fill="#E1E8EE"/>
<path d="M594.667 341H234C232.343 341 231 342.343 231 344V346C231 347.657 232.343 349 234 349H594.667C596.324 349 597.667 347.657 597.667 346V344C597.667 342.343 596.324 341 594.667 341Z" fill="#E1E8EE"/>
<path d="M561.333 357H234C232.343 357 231 358.343 231 360V362C231 363.657 232.343 365 234 365H561.333C562.99 365 564.333 363.657 564.333 362V360C564.333 358.343 562.99 357 561.333 357Z" fill="#E1E8EE"/>
<path d="M691 341C697.627 341 703 335.627 703 329C703 322.373 697.627 317 691 317C684.373 317 679 322.373 679 329C679 335.627 684.373 341 691 341Z" fill="#A7B9C8"/>
<path d="M755 341C761.627 341 767 335.627 767 329C767 322.373 761.627 317 755 317C748.373 317 743 322.373 743 329C743 335.627 748.373 341 755 341Z" fill="#A7B9C8"/>
<path d="M723 341C729.627 341 735 335.627 735 329C735 322.373 729.627 317 723 317C716.373 317 711 322.373 711 329C711 335.627 716.373 341 723 341Z" fill="#A7B9C8"/>
<path d="M127 517C151.853 517 172 496.853 172 472C172 447.147 151.853 427 127 427C102.147 427 82 447.147 82 472C82 496.853 102.147 517 127 517Z" fill="url(#paint2_linear_214_63)"/>
<path d="M343 436H234C232.343 436 231 437.343 231 439V449C231 450.657 232.343 452 234 452H343C344.657 452 346 450.657 346 449V439C346 437.343 344.657 436 343 436Z" fill="#E1E8EE"/>
<path d="M628 468H234C232.343 468 231 469.343 231 471V473C231 474.657 232.343 476 234 476H628C629.657 476 631 474.657 631 473V471C631 469.343 629.657 468 628 468Z" fill="#E1E8EE"/>
<path d="M594.667 484H234C232.343 484 231 485.343 231 487V489C231 490.657 232.343 492 234 492H594.667C596.324 492 597.667 490.657 597.667 489V487C597.667 485.343 596.324 484 594.667 484Z" fill="#E1E8EE"/>
<path d="M561.333 500H234C232.343 500 231 501.343 231 503V505C231 506.657 232.343 508 234 508H561.333C562.99 508 564.333 506.657 564.333 505V503C564.333 501.343 562.99 500 561.333 500Z" fill="#E1E8EE"/>
<path d="M691 484C697.627 484 703 478.627 703 472C703 465.373 697.627 460 691 460C684.373 460 679 465.373 679 472C679 478.627 684.373 484 691 484Z" fill="#A7B9C8"/>
<path d="M755 484C761.627 484 767 478.627 767 472C767 465.373 761.627 460 755 460C748.373 460 743 465.373 743 472C743 478.627 748.373 484 755 484Z" fill="#A7B9C8"/>
<path d="M723 484C729.627 484 735 478.627 735 472C735 465.373 729.627 460 723 460C716.373 460 711 465.373 711 472C711 478.627 716.373 484 723 484Z" fill="#A7B9C8"/>
<path d="M787 484C793.627 484 799 478.627 799 472C799 465.373 793.627 460 787 460C780.373 460 775 465.373 775 472C775 478.627 780.373 484 787 484Z" fill="#A7B9C8"/>
<g filter="url(#filter2_d_214_63)">
<path d="M1008.93 218H723.067C713.641 218 706 225.641 706 235.067V712.933C706 722.359 713.641 730 723.067 730H1008.93C1018.36 730 1026 722.359 1026 712.933V235.067C1026 225.641 1018.36 218 1008.93 218Z" fill="black"/>
</g>
<path d="M1008.93 218H723.067C713.641 218 706 225.641 706 235.067V712.933C706 722.359 713.641 730 723.067 730H1008.93C1018.36 730 1026 722.359 1026 712.933V235.067C1026 225.641 1018.36 218 1008.93 218Z" fill="white"/>
<g filter="url(#filter3_d_214_63)">
<path d="M723.067 218H1008.93C1018.36 218 1026 225.641 1026 235.067V272.613H706V235.067C706 225.64 713.641 218 723.067 218Z" fill="black"/>
</g>
<path d="M723.067 218H1008.93C1018.36 218 1026 225.641 1026 235.067V272.613H706V235.067C706 225.64 713.641 218 723.067 218Z" fill="#00252E"/>
<path d="M837.866 236.773H742.4C740.043 236.773 738.133 238.683 738.133 241.04V252.986C738.133 255.343 740.043 257.253 742.4 257.253H837.866C840.222 257.253 842.133 255.343 842.133 252.986V241.04C842.133 238.683 840.222 236.773 837.866 236.773Z" fill="#E1E8EE"/>
<path d="M990.16 238.48H966.267C965.324 238.48 964.56 239.244 964.56 240.186C964.56 241.129 965.324 241.893 966.267 241.893H990.16C991.102 241.893 991.867 241.129 991.867 240.186C991.867 239.244 991.102 238.48 990.16 238.48Z" fill="#D8D8D8"/>
<path d="M990.16 245.307H966.267C965.324 245.307 964.56 246.071 964.56 247.013C964.56 247.956 965.324 248.72 966.267 248.72H990.16C991.102 248.72 991.867 247.956 991.867 247.013C991.867 246.071 991.102 245.307 990.16 245.307Z" fill="#D8D8D8"/>
<path d="M990.16 252.133H966.267C965.324 252.133 964.56 252.897 964.56 253.84C964.56 254.782 965.324 255.546 966.267 255.546H990.16C991.102 255.546 991.867 254.782 991.867 253.84C991.867 252.897 991.102 252.133 990.16 252.133Z" fill="#D8D8D8"/>
<path d="M753 356C761.284 356 768 349.284 768 341C768 332.716 761.284 326 753 326C744.716 326 738 332.716 738 341C738 349.284 744.716 356 753 356Z" fill="url(#paint3_linear_214_63)"/>
<path d="M840.58 329H784.92C784.412 329 784 329.412 784 329.92V333.413C784 333.921 784.412 334.333 784.92 334.333H840.58C841.088 334.333 841.5 333.921 841.5 333.413V329.92C841.5 329.412 841.088 329 840.58 329Z" fill="#E1E8EE"/>
<path d="M983.08 339.667H784.92C784.412 339.667 784 340.079 784 340.587V341.414C784 341.922 784.412 342.334 784.92 342.334H983.08C983.588 342.334 984 341.922 984 341.414V340.587C984 340.079 983.588 339.667 983.08 339.667Z" fill="#E1E8EE"/>
<path d="M966.413 345H784.92C784.412 345 784 345.412 784 345.92V346.747C784 347.255 784.412 347.667 784.92 347.667H966.413C966.921 347.667 967.333 347.255 967.333 346.747V345.92C967.333 345.412 966.921 345 966.413 345Z" fill="#E1E8EE"/>
<path d="M949.747 350.333H784.92C784.412 350.333 784 350.745 784 351.253V352.08C784 352.588 784.412 353 784.92 353H949.747C950.255 353 950.667 352.588 950.667 352.08V351.253C950.667 350.745 950.255 350.333 949.747 350.333Z" fill="#E1E8EE"/>
<path d="M753 494C761.284 494 768 487.284 768 479C768 470.716 761.284 464 753 464C744.716 464 738 470.716 738 479C738 487.284 744.716 494 753 494Z" fill="url(#paint4_linear_214_63)"/>
<path d="M840.58 467H784.92C784.412 467 784 467.412 784 467.92V471.413C784 471.921 784.412 472.333 784.92 472.333H840.58C841.088 472.333 841.5 471.921 841.5 471.413V467.92C841.5 467.412 841.088 467 840.58 467Z" fill="#E1E8EE"/>
<path d="M983.08 477.667H784.92C784.412 477.667 784 478.079 784 478.587V479.414C784 479.922 784.412 480.334 784.92 480.334H983.08C983.588 480.334 984 479.922 984 479.414V478.587C984 478.079 983.588 477.667 983.08 477.667Z" fill="#E1E8EE"/>
<path d="M966.413 483H784.92C784.412 483 784 483.412 784 483.92V484.747C784 485.255 784.412 485.667 784.92 485.667H966.413C966.921 485.667 967.333 485.255 967.333 484.747V483.92C967.333 483.412 966.921 483 966.413 483Z" fill="#E1E8EE"/>
<path d="M949.747 488.333H784.92C784.412 488.333 784 488.745 784 489.253V490.08C784 490.588 784.412 491 784.92 491H949.747C950.255 491 950.667 490.588 950.667 490.08V489.253C950.667 488.745 950.255 488.333 949.747 488.333Z" fill="#E1E8EE"/>
<path d="M840.58 375H784.92C784.412 375 784 375.412 784 375.92V379.413C784 379.921 784.412 380.333 784.92 380.333H840.58C841.088 380.333 841.5 379.921 841.5 379.413V375.92C841.5 375.412 841.088 375 840.58 375Z" fill="#E1E8EE"/>
<path d="M983.08 385.667H784.92C784.412 385.667 784 386.079 784 386.587V387.414C784 387.922 784.412 388.334 784.92 388.334H983.08C983.588 388.334 984 387.922 984 387.414V386.587C984 386.079 983.588 385.667 983.08 385.667Z" fill="#E1E8EE"/>
<path d="M966.413 391H784.92C784.412 391 784 391.412 784 391.92V392.747C784 393.255 784.412 393.667 784.92 393.667H966.413C966.921 393.667 967.333 393.255 967.333 392.747V391.92C967.333 391.412 966.921 391 966.413 391Z" fill="#E1E8EE"/>
<path d="M949.747 396.333H784.92C784.412 396.333 784 396.745 784 397.253V398.08C784 398.588 784.412 399 784.92 399H949.747C950.255 399 950.667 398.588 950.667 398.08V397.253C950.667 396.745 950.255 396.333 949.747 396.333Z" fill="#E1E8EE"/>
<path d="M753 402C761.284 402 768 395.284 768 387C768 378.716 761.284 372 753 372C744.716 372 738 378.716 738 387C738 395.284 744.716 402 753 402Z" fill="url(#paint5_linear_214_63)"/>
<path d="M840.58 513H784.92C784.412 513 784 513.412 784 513.92V517.413C784 517.921 784.412 518.333 784.92 518.333H840.58C841.088 518.333 841.5 517.921 841.5 517.413V513.92C841.5 513.412 841.088 513 840.58 513Z" fill="#E1E8EE"/>
<path d="M983.08 523.667H784.92C784.412 523.667 784 524.079 784 524.587V525.414C784 525.922 784.412 526.334 784.92 526.334H983.08C983.588 526.334 984 525.922 984 525.414V524.587C984 524.079 983.588 523.667 983.08 523.667Z" fill="#E1E8EE"/>
<path d="M966.413 529H784.92C784.412 529 784 529.412 784 529.92V530.747C784 531.255 784.412 531.667 784.92 531.667H966.413C966.921 531.667 967.333 531.255 967.333 530.747V529.92C967.333 529.412 966.921 529 966.413 529Z" fill="#E1E8EE"/>
<path d="M949.747 534.333H784.92C784.412 534.333 784 534.745 784 535.253V536.08C784 536.588 784.412 537 784.92 537H949.747C950.255 537 950.667 536.588 950.667 536.08V535.253C950.667 534.745 950.255 534.333 949.747 534.333Z" fill="#E1E8EE"/>
<path d="M753 540C761.284 540 768 533.284 768 525C768 516.716 761.284 510 753 510C744.716 510 738 516.716 738 525C738 533.284 744.716 540 753 540Z" fill="url(#paint6_linear_214_63)"/>
<path d="M840.58 421H784.92C784.412 421 784 421.412 784 421.92V425.413C784 425.921 784.412 426.333 784.92 426.333H840.58C841.088 426.333 841.5 425.921 841.5 425.413V421.92C841.5 421.412 841.088 421 840.58 421Z" fill="#E1E8EE"/>
<path d="M983.08 431.667H784.92C784.412 431.667 784 432.079 784 432.587V433.414C784 433.922 784.412 434.334 784.92 434.334H983.08C983.588 434.334 984 433.922 984 433.414V432.587C984 432.079 983.588 431.667 983.08 431.667Z" fill="#E1E8EE"/>
<path d="M966.413 437H784.92C784.412 437 784 437.412 784 437.92V438.747C784 439.255 784.412 439.667 784.92 439.667H966.413C966.921 439.667 967.333 439.255 967.333 438.747V437.92C967.333 437.412 966.921 437 966.413 437Z" fill="#E1E8EE"/>
<path d="M949.747 442.333H784.92C784.412 442.333 784 442.745 784 443.253V444.08C784 444.588 784.412 445 784.92 445H949.747C950.255 445 950.667 444.588 950.667 444.08V443.253C950.667 442.745 950.255 442.333 949.747 442.333Z" fill="#E1E8EE"/>
<path d="M753 448C761.284 448 768 441.284 768 433C768 424.716 761.284 418 753 418C744.716 418 738 424.716 738 433C738 441.284 744.716 448 753 448Z" fill="url(#paint7_linear_214_63)"/>
<path d="M840.58 559H784.92C784.412 559 784 559.412 784 559.92V563.413C784 563.921 784.412 564.333 784.92 564.333H840.58C841.088 564.333 841.5 563.921 841.5 563.413V559.92C841.5 559.412 841.088 559 840.58 559Z" fill="#E1E8EE"/>
<path d="M983.08 569.667H784.92C784.412 569.667 784 570.079 784 570.587V571.414C784 571.922 784.412 572.334 784.92 572.334H983.08C983.588 572.334 984 571.922 984 571.414V570.587C984 570.079 983.588 569.667 983.08 569.667Z" fill="#E1E8EE"/>
<path d="M966.413 575H784.92C784.412 575 784 575.412 784 575.92V576.747C784 577.255 784.412 577.667 784.92 577.667H966.413C966.921 577.667 967.333 577.255 967.333 576.747V575.92C967.333 575.412 966.921 575 966.413 575Z" fill="#E1E8EE"/>
<path d="M949.747 580.333H784.92C784.412 580.333 784 580.745 784 581.253V582.08C784 582.588 784.412 583 784.92 583H949.747C950.255 583 950.667 582.588 950.667 582.08V581.253C950.667 580.745 950.255 580.333 949.747 580.333Z" fill="#E1E8EE"/>
<path d="M753 586C761.284 586 768 579.284 768 571C768 562.716 761.284 556 753 556C744.716 556 738 562.716 738 571C738 579.284 744.716 586 753 586Z" fill="url(#paint8_linear_214_63)"/>
<path d="M753 632C761.284 632 768 625.284 768 617C768 608.716 761.284 602 753 602C744.716 602 738 608.716 738 617C738 625.284 744.716 632 753 632Z" fill="url(#paint9_linear_214_63)"/>
<path d="M840.58 605H784.92C784.412 605 784 605.412 784 605.92V609.413C784 609.921 784.412 610.333 784.92 610.333H840.58C841.088 610.333 841.5 609.921 841.5 609.413V605.92C841.5 605.412 841.088 605 840.58 605Z" fill="#E1E8EE"/>
<path d="M983.08 615.667H784.92C784.412 615.667 784 616.079 784 616.587V617.414C784 617.922 784.412 618.334 784.92 618.334H983.08C983.588 618.334 984 617.922 984 617.414V616.587C984 616.079 983.588 615.667 983.08 615.667Z" fill="#E1E8EE"/>
<path d="M966.413 621H784.92C784.412 621 784 621.412 784 621.92V622.747C784 623.255 784.412 623.667 784.92 623.667H966.413C966.921 623.667 967.333 623.255 967.333 622.747V621.92C967.333 621.412 966.921 621 966.413 621Z" fill="#E1E8EE"/>
<path d="M949.747 626.333H784.92C784.412 626.333 784 626.745 784 627.253V628.08C784 628.588 784.412 629 784.92 629H949.747C950.255 629 950.667 628.588 950.667 628.08V627.253C950.667 626.745 950.255 626.333 949.747 626.333Z" fill="#E1E8EE"/>
<path d="M840.58 651H784.92C784.412 651 784 651.412 784 651.92V655.413C784 655.921 784.412 656.333 784.92 656.333H840.58C841.088 656.333 841.5 655.921 841.5 655.413V651.92C841.5 651.412 841.088 651 840.58 651Z" fill="#E1E8EE"/>
<path d="M983.08 661.667H784.92C784.412 661.667 784 662.079 784 662.587V663.414C784 663.922 784.412 664.334 784.92 664.334H983.08C983.588 664.334 984 663.922 984 663.414V662.587C984 662.079 983.588 661.667 983.08 661.667Z" fill="#E1E8EE"/>
<path d="M966.413 667H784.92C784.412 667 784 667.412 784 667.92V668.747C784 669.255 784.412 669.667 784.92 669.667H966.413C966.921 669.667 967.333 669.255 967.333 668.747V667.92C967.333 667.412 966.921 667 966.413 667Z" fill="#E1E8EE"/>
<path d="M949.747 672.333H784.92C784.412 672.333 784 672.745 784 673.253V674.08C784 674.588 784.412 675 784.92 675H949.747C950.255 675 950.667 674.588 950.667 674.08V673.253C950.667 672.745 950.255 672.333 949.747 672.333Z" fill="#E1E8EE"/>
<path d="M753 678C761.284 678 768 671.284 768 663C768 654.716 761.284 648 753 648C744.716 648 738 654.716 738 663C738 671.284 744.716 678 753 678Z" fill="url(#paint10_linear_214_63)"/>
<defs>
<filter id="filter0_d_214_63" x="0" y="0" width="980" height="620" filterUnits="userSpaceOnUse" color-interpolation-filters="sRGB">
<feFlood flood-opacity="0" result="BackgroundImageFix"/>
<feColorMatrix in="SourceAlpha" type="matrix" values="0 0 0 0 0 0 0 0 0 0 0 0 0 0 0 0 0 0 127 0" result="hardAlpha"/>
<feOffset/>
<feGaussianBlur stdDeviation="5"/>
<feColorMatrix type="matrix" values="0 0 0 0 0 0 0 0 0 0.145098 0 0 0 0 0.180392 0 0 0 0.181839 0"/>
<feBlend mode="normal" in2="BackgroundImageFix" result="effect1_dropShadow_214_63"/>
<feBlend mode="normal" in="SourceGraphic" in2="effect1_dropShadow_214_63" result="shape"/>
</filter>
<filter id="filter1_d_214_63" x="0" y="0" width="980" height="84" filterUnits="userSpaceOnUse" color-interpolation-filters="sRGB">
<feFlood flood-opacity="0" result="BackgroundImageFix"/>
<feColorMatrix in="SourceAlpha" type="matrix" values="0 0 0 0 0 0 0 0 0 0 0 0 0 0 0 0 0 0 127 0" result="hardAlpha"/>
<feOffset/>
<feGaussianBlur stdDeviation="5"/>
<feColorMatrix type="matrix" values="0 0 0 0 0 0 0 0 0 0.145098 0 0 0 0 0.180392 0 0 0 0.181839 0"/>
<feBlend mode="normal" in2="BackgroundImageFix" result="effect1_dropShadow_214_63"/>
<feBlend mode="normal" in="SourceGraphic" in2="effect1_dropShadow_214_63" result="shape"/>
</filter>
<filter id="filter2_d_214_63" x="697" y="209" width="338" height="530" filterUnits="userSpaceOnUse" color-interpolation-filters="sRGB">
<feFlood flood-opacity="0" result="BackgroundImageFix"/>
<feColorMatrix in="SourceAlpha" type="matrix" values="0 0 0 0 0 0 0 0 0 0 0 0 0 0 0 0 0 0 127 0" result="hardAlpha"/>
<feOffset/>
<feGaussianBlur stdDeviation="4.5"/>
<feColorMatrix type="matrix" values="0 0 0 0 0 0 0 0 0 0.145098 0 0 0 0 0.180392 0 0 0 0.181839 0"/>
<feBlend mode="normal" in2="BackgroundImageFix" result="effect1_dropShadow_214_63"/>
<feBlend mode="normal" in="SourceGraphic" in2="effect1_dropShadow_214_63" result="shape"/>
</filter>
<filter id="filter3_d_214_63" x="697" y="209" width="338" height="72.613" filterUnits="userSpaceOnUse" color-interpolation-filters="sRGB">
<feFlood flood-opacity="0" result="BackgroundImageFix"/>
<feColorMatrix in="SourceAlpha" type="matrix" values="0 0 0 0 0 0 0 0 0 0 0 0 0 0 0 0 0 0 127 0" result="hardAlpha"/>
<feOffset/>
<feGaussianBlur stdDeviation="4.5"/>
<feColorMatrix type="matrix" values="0 0 0 0 0 0 0 0 0 0.145098 0 0 0 0 0.180392 0 0 0 0.181839 0"/>
<feBlend mode="normal" in2="BackgroundImageFix" result="effect1_dropShadow_214_63"/>
<feBlend mode="normal" in="SourceGraphic" in2="effect1_dropShadow_214_63" result="shape"/>
</filter>
<linearGradient id="paint0_linear_214_63" x1="96.2186" y1="126.532" x2="154.956" y2="262.63" gradientUnits="userSpaceOnUse">
<stop stop-color="#FAD961"/>
<stop offset="1" stop-color="#FF52C1"/>
</linearGradient>
<linearGradient id="paint1_linear_214_63" x1="127" y1="284" x2="127" y2="374" gradientUnits="userSpaceOnUse">
<stop stop-color="#00C7FA"/>
<stop offset="1" stop-color="#007DFA"/>
</linearGradient>
<linearGradient id="paint2_linear_214_63" x1="108.076" y1="427" x2="163.18" y2="527.12" gradientUnits="userSpaceOnUse">
<stop stop-color="#FF52C1"/>
<stop offset="1" stop-color="#9952FF"/>
</linearGradient>
<linearGradient id="paint3_linear_214_63" x1="742.443" y1="319.291" x2="760.799" y2="361.822" gradientUnits="userSpaceOnUse">
<stop stop-color="#FAD961"/>
<stop offset="1" stop-color="#FF52C1"/>
</linearGradient>
<linearGradient id="paint4_linear_214_63" x1="742.443" y1="457.291" x2="760.799" y2="499.822" gradientUnits="userSpaceOnUse">
<stop stop-color="#FAD961"/>
<stop offset="1" stop-color="#FF52C1"/>
</linearGradient>
<linearGradient id="paint5_linear_214_63" x1="753" y1="372" x2="753" y2="402" gradientUnits="userSpaceOnUse">
<stop stop-color="#00C7FA"/>
<stop offset="1" stop-color="#007DFA"/>
</linearGradient>
<linearGradient id="paint6_linear_214_63" x1="753" y1="510" x2="753" y2="540" gradientUnits="userSpaceOnUse">
<stop stop-color="#00C7FA"/>
<stop offset="1" stop-color="#007DFA"/>
</linearGradient>
<linearGradient id="paint7_linear_214_63" x1="746.692" y1="418" x2="765.06" y2="451.373" gradientUnits="userSpaceOnUse">
<stop stop-color="#FF52C1"/>
<stop offset="1" stop-color="#9952FF"/>
</linearGradient>
<linearGradient id="paint8_linear_214_63" x1="746.692" y1="556" x2="765.06" y2="589.373" gradientUnits="userSpaceOnUse">
<stop stop-color="#FF52C1"/>
<stop offset="1" stop-color="#9952FF"/>
</linearGradient>
<linearGradient id="paint9_linear_214_63" x1="742.443" y1="595.291" x2="760.799" y2="637.822" gradientUnits="userSpaceOnUse">
<stop stop-color="#FAD961"/>
<stop offset="1" stop-color="#FF52C1"/>
</linearGradient>
<linearGradient id="paint10_linear_214_63" x1="753" y1="648" x2="753" y2="678" gradientUnits="userSpaceOnUse">
<stop stop-color="#00C7FA"/>
<stop offset="1" stop-color="#007DFA"/>
</linearGradient>
</defs>
</svg>
